<svg width="60" height="60" viewBox="0 0 60 60" fill="none" xmlns="http://www.w3.org/2000/svg">
<g id="&#208;&#187;&#208;&#190;&#208;&#179;&#208;&#190;">
<g id="g231">
<g id="g1397">
<g id="g1441">
<g id="g1338">
<g id="g3838">
<path id="path3838" d="M28.4796 42.3356C25.8455 39.8245 23.2338 38.1638 20.5518 37.2944C18.7916 36.7238 17.1758 36.4833 15.1004 36.483C13.5299 36.4828 12.0122 36.6214 10.3351 36.9183L9.91113 36.9933L9.93171 36.902C9.94303 36.8517 10.9244 33.1679 12.1124 28.7157L14.2726 20.6207L15.8298 19.6108C16.6862 19.0553 17.6663 18.4305 18.0078 18.2224C21.074 16.3532 23.0047 15.7276 24.3007 16.1834C24.5823 16.2824 24.7246 16.3597 24.9477 16.535C25.3005 16.8122 25.6491 17.2899 25.822 17.7333C25.8674 17.8498 25.8404 17.8294 25.7039 17.6441C24.8787 16.5242 23.6445 16.1988 21.9927 16.6655C21.5435 16.7924 21.04 16.997 20.353 17.3317C19.2794 17.8548 18.1536 18.5412 15.8967 20.0486L14.6715 20.8669L12.8236 28.1679C11.8072 32.1835 10.9754 35.5106 10.9751 35.5615C10.9744 35.6805 10.9648 35.6821 11.8665 35.4074C13.4156 34.9356 14.9194 34.628 16.4922 34.4613C17.2617 34.3797 19.3762 34.3791 20.0547 34.4603C23.3267 34.8517 25.6046 36.0901 27.079 38.2791C27.3551 38.6891 27.7566 39.4611 27.9365 39.9278C28.0357 40.1853 28.0741 40.2509 28.1257 40.2509C28.1844 40.2509 28.4537 39.3023 28.4739 38.9947C29.3755 38.3696 28.875 40.8452 30.0616 40.2788C30.0826 40.2993 30.2825 40.2219 30.6334 40.0573C33.139 38.8825 35.7402 38.242 39.1761 37.9539C40.0098 37.884 42.5503 37.8561 43.5424 37.906C44.8206 37.9702 46.0184 38.0838 47.1627 38.2493C47.8498 38.3487 47.8255 38.349 47.8255 38.2402C47.8255 38.1305 43.4872 20.9428 43.4471 20.8938C43.4309 20.8739 43.2397 20.8485 43.0121 20.836C42.1495 20.7886 41.4588 20.6536 40.5182 20.3484C39.7736 20.1068 39.1531 19.8535 37.7843 19.2325C36.0551 18.448 35.3974 18.1973 34.636 18.0322C34.1561 17.9282 33.2842 17.9272 32.9298 18.0303C32.8025 18.0674 32.6921 18.0917 32.6846 18.0844C32.6607 18.0611 33.0869 17.8806 33.2939 17.8264C33.612 17.7431 34.1315 17.7298 34.5532 17.7943C35.2848 17.9061 36.0282 18.1721 37.834 18.9681C40.464 20.1275 41.7493 20.5141 43.3555 20.6292L43.873 20.6663L44.2941 22.2518C44.5258 23.1238 45.5055 26.8324 46.4713 30.4932C47.4371 34.1539 48.3755 37.7049 48.5566 38.3841C48.7377 39.0634 48.8859 39.6328 48.8859 39.6494C48.8859 39.6898 48.6397 39.7059 46.5827 39.8C44.6332 39.8891 43.682 39.9459 42.5232 40.0422C38.233 40.3988 34.4456 41.1605 30.3113 42.4982C29.6552 42.7105 29.1034 42.8836 29.0852 42.8828C29.0669 42.882 28.7945 42.6357 28.4796 42.3356V42.3356Z" fill="#B82236"/>
<path id="path24030-7-3" d="M28.3912 39.1275C28.2933 38.8631 28.4763 38.1091 28.6881 37.7933C28.8754 37.514 29.0511 37.0782 29.1115 36.7436C29.1257 36.6644 29.2374 36.4157 29.3596 36.1908C29.6061 35.7371 29.6529 35.2581 29.4507 35.2581C29.3787 35.2581 29.3197 35.1431 29.3197 35.0025C29.3197 34.7814 29.407 34.747 29.9675 34.747C30.4419 34.747 30.6612 34.6851 30.7866 34.516C30.8808 34.3889 31.2326 34.1022 31.5685 33.8789C32.0398 33.5655 32.1635 33.4139 32.1102 33.2152C32.0381 32.9466 32.3566 32.468 33.1952 31.5846C33.4454 31.3211 33.799 30.7892 33.9808 30.4027C34.1627 30.0161 34.4009 29.5413 34.5102 29.3475C34.6195 29.1536 34.6969 28.8949 34.6822 28.7725C34.6413 28.4324 34.8437 27.467 34.9721 27.3896C35.1665 27.2725 35.098 26.6103 34.8151 25.8731C34.6661 25.4849 34.5839 25.1046 34.6324 25.028C34.681 24.9515 34.5929 24.7727 34.4366 24.6308C34.0612 24.2897 33.9065 23.8651 33.9065 23.1751C33.9065 22.532 33.6488 22.421 33.1217 22.8371C32.5181 23.3137 32.8245 25.9174 33.4738 25.8286C33.6269 25.8077 33.7904 25.8508 33.8371 25.9245C33.8878 26.0045 33.787 26.0584 33.5866 26.0584C33.293 26.0584 33.2512 26.1121 33.2512 26.4899C33.2512 26.7273 33.1601 26.9952 33.0487 27.0854C32.9373 27.1755 32.8777 27.3294 32.9163 27.4274C32.9849 27.6017 32.4028 28.8694 32.2541 28.8694C32.2126 28.8694 32.0372 28.7609 31.8644 28.6284C31.5369 28.3772 31.5952 28.2397 32.1045 28.0627C32.4332 27.9485 32.0967 25.8665 31.6651 25.3438C31.6017 25.2671 31.5886 25.1665 31.6361 25.1202C31.6835 25.074 31.5798 25.0318 31.4056 25.0264C31.2314 25.021 30.9709 24.9876 30.8268 24.9522C30.5162 24.8758 29.7073 24.8102 28.5334 24.7662C27.4699 24.7264 26.3193 24.2418 26.575 23.9414C26.674 23.8251 26.7883 23.7984 26.8798 23.8702C27.0821 24.0289 28.03 24.17 29.1231 24.204C29.6277 24.2197 30.2469 24.273 30.4991 24.3224C30.7514 24.3717 31.0463 24.4253 31.1544 24.4414C31.7867 24.5357 32.2159 24.8612 32.3601 25.3556C32.4421 25.6367 32.5657 25.9242 32.6348 25.9945C32.8388 26.2018 32.6159 25.0568 32.3855 24.714C32.2731 24.5467 32.205 24.3064 32.2342 24.18C32.4673 23.1697 31.6836 22.778 29.9948 23.0606C28.2926 23.3454 26.8561 23.3661 26.6886 23.1082C26.4579 22.7527 26.5509 22.5771 26.9406 22.6328C27.3747 22.695 27.4105 22.2398 27.0174 21.655C26.7702 21.2871 26.8778 21.0323 27.2339 21.1425C27.372 21.1852 27.4896 21.1732 27.4953 21.1157C27.5903 20.1539 27.556 19.8667 27.318 19.6347C27.0487 19.3721 27.2476 19.0551 27.5461 19.2713C27.8054 19.4591 28.8087 19.6828 29.0529 19.6072C29.1881 19.5654 29.4359 19.5054 29.6036 19.4739C29.7713 19.4424 29.9284 19.3586 29.9527 19.2876C30.0447 19.0184 30.2453 19.1786 30.5139 19.7356C30.9904 20.724 32.3269 21.2501 32.438 20.493C32.4958 20.0986 31.8222 19.4241 31.6573 19.7114C31.4297 20.1078 31.1433 19.9669 31.1773 19.4753C31.2431 18.5218 30.2454 18.0846 28.4678 18.288C28.0354 18.3374 27.4614 18.3216 27.1923 18.2528C26.3264 18.0314 25.7044 18.7255 25.8711 19.7271C25.912 19.9725 25.8746 20.4473 25.7881 20.7821C25.7017 21.1169 25.6015 21.938 25.5656 22.6066C25.5297 23.2753 25.4013 24.1673 25.2804 24.589C25.1096 25.1844 25.0588 25.9263 25.053 27.9111C25.0489 29.3166 25.0034 30.8466 24.9519 31.3111C24.8765 31.9912 24.8971 32.1871 25.0577 32.317C25.3016 32.5144 25.3195 32.8304 25.0867 32.8304C24.993 32.8304 24.8434 32.7592 24.7542 32.6723C24.5779 32.5004 23.6568 33.3195 23.5997 33.6991C23.5101 34.2942 21.4496 36.7373 21.1361 36.6201C20.8742 36.5221 20.9754 36.3045 21.6475 35.5202C21.9029 35.2222 22.1118 34.9283 22.1118 34.8671C22.1118 34.8059 22.2778 34.567 22.4807 34.3361C22.6835 34.1053 23.0302 33.6251 23.251 33.269C23.4718 32.9129 23.7973 32.4693 23.9743 32.2831C24.1512 32.0969 24.3043 31.8708 24.3145 31.7805C24.5331 29.8446 24.5775 29.2738 24.526 29.061C24.4183 28.6156 24.3678 25.3612 24.4665 25.2278C24.6041 25.042 24.8679 23.9931 24.8521 23.6945C24.8229 23.1418 24.9738 21.6233 25.106 21.1391C25.1828 20.858 25.2297 20.283 25.2102 19.8613C25.1356 18.2417 25.6521 17.7345 27.4096 17.7015C28.9073 17.6734 28.9262 17.659 28.9388 16.5317C28.9442 16.0439 29.0594 14.9836 29.1947 14.1754C29.33 13.3673 29.4536 12.4022 29.4694 12.0308C29.5172 10.9012 30.2075 10.462 30.8639 11.1433C31.2463 11.5401 31.5551 12.8748 31.4092 13.5C31.3471 13.7661 31.2869 14.8462 31.2754 15.9004C31.2625 17.0915 31.2019 17.8494 31.1154 17.9026C30.9709 17.9915 31.2791 18.4423 32.0614 19.2864C33.032 20.3336 33.0846 20.9868 32.2093 21.1233C31.5484 21.2263 30.7471 20.9281 30.3035 20.4141C29.5763 19.5714 29.1506 19.9168 29.129 21.3672C29.1103 22.6175 29.1103 22.6175 29.4443 22.5559C29.628 22.5221 30.029 22.4575 30.3353 22.4124C30.8923 22.3305 30.8923 22.3305 30.8923 21.7573C30.8923 21.2792 30.9652 20.9498 31.1566 20.9882C31.3356 21.0242 31.3457 21.3927 31.3269 21.8075C31.3043 22.3069 31.3297 22.3473 31.7528 22.4835C32.0003 22.5631 32.2028 22.6813 32.2028 22.7462C32.2028 22.9837 32.5565 22.8553 32.7193 22.5587C33.0856 21.8914 34.4648 21.7822 34.2775 22.4353C34.2234 22.6239 34.4372 23.8984 34.5603 24.121C35.7563 26.2837 35.8619 27.2783 35.0715 28.9333C35.0044 29.0738 34.9274 29.304 34.9004 29.4449C34.7364 30.301 34.5005 30.8374 34.1277 31.2022C33.8948 31.4301 33.567 31.8337 33.3994 32.0991C33.2317 32.3644 33.0227 32.6519 32.935 32.7379C32.8472 32.8239 32.6145 33.1624 32.4178 33.4901C32.0197 34.1534 31.0813 35.0546 30.6496 35.1882C30.4926 35.2367 30.3308 35.4264 30.2827 35.6179C30.2354 35.8065 30.1615 35.9896 30.1186 36.0247C30.0413 36.0879 29.4609 37.375 29.3984 37.6219C29.3806 37.6921 29.2671 37.9723 29.1463 38.2444C29.0254 38.5165 28.945 39.4318 28.945 39.486C28.945 39.6608 28.4515 39.2903 28.3912 39.1275ZM28.5557 22.2571C28.6466 20.3065 28.638 20.1808 28.4127 20.1808C28.2395 20.1808 28.1568 20.3927 28.0263 21.171C27.935 21.7157 27.8337 22.2906 27.8012 22.4488C27.7503 22.6961 27.7973 22.7362 28.1377 22.7362C28.5036 22.7362 28.535 22.7002 28.5557 22.2571ZM30.8268 14.7486C30.8268 11.4653 30.7893 11.2572 30.2031 11.2861C29.9503 11.2985 29.9094 11.3717 29.9094 11.8116C29.9094 12.2275 29.9521 12.3157 30.1388 12.2852C30.4502 12.2342 30.4321 12.5681 30.0996 13.0066C29.9519 13.2014 29.8065 13.55 29.7764 13.7814C29.7464 14.0127 29.6879 14.3062 29.6465 14.4335C29.605 14.5608 29.6354 14.7037 29.7139 14.751C29.8048 14.8058 29.8119 14.8908 29.7332 14.9854C29.6654 15.067 29.5692 15.6499 29.5196 16.2808C29.47 16.9117 29.4012 17.4723 29.3668 17.5266C29.3324 17.5809 29.5401 17.6253 29.8284 17.6253C30.1167 17.6253 30.383 17.6732 30.4201 17.7318C30.756 18.2616 30.8268 17.7423 30.8268 14.7486ZM27.8781 34.0442C27.8781 33.9367 27.9951 33.8525 28.1446 33.8525C28.2911 33.8525 28.6967 33.7114 29.046 33.5388C29.7187 33.2065 29.8532 33.2154 29.7539 33.5855C29.6209 34.0815 27.8781 34.5077 27.8781 34.0442ZM29.2625 31.0735C29.3059 30.8802 29.3894 30.5723 29.4482 30.3891C29.5965 29.9267 29.3088 28.4861 29.0682 28.4861C28.6757 28.4861 28.3814 27.6826 28.6174 27.2553C28.8597 26.8166 28.8597 26.8166 28.4344 26.4921C28.2005 26.3136 28.0092 26.0837 28.0092 25.9812C28.0092 25.6674 28.3757 25.6361 28.7438 25.9184C29.1496 26.2296 30.5356 26.3054 30.7208 26.0264C30.7861 25.9279 30.8671 26.1361 30.9319 26.5695C31.0819 27.5731 31.0772 27.9658 30.9077 28.5857C30.6354 29.5817 30.9806 30.0722 31.5411 29.4856C31.8951 29.1152 31.9911 29.2427 31.7351 29.7431C31.0805 31.0224 30.1204 29.5384 30.5646 27.9338C30.7334 27.324 30.1568 26.5882 29.6568 26.7752C29.5435 26.8176 29.4507 26.9324 29.4507 27.0303C29.4507 27.1282 29.3981 27.2083 29.3337 27.2083C29.0273 27.2083 29.0863 27.6482 29.4505 28.079C29.6669 28.3349 29.8439 28.6421 29.8439 28.7616C29.8439 28.8811 29.9176 29.0549 30.0077 29.1477C30.0978 29.2406 30.182 29.5178 30.1949 29.7638C30.2078 30.0098 30.2596 30.4041 30.3102 30.6401C30.3957 31.0398 30.3822 31.0631 30.1138 30.98C29.8891 30.9105 29.8097 30.9498 29.7539 31.1578C29.6372 31.5928 29.1642 31.5116 29.2625 31.0735Z" fill="#B82236"/>
<path id="path25117-6" d="M30.4111 17.69C30.3387 17.6444 30.1103 17.6065 29.9037 17.6058C29.6577 17.6049 29.5111 17.5617 29.4792 17.4806C29.4524 17.4125 29.4998 16.8638 29.5846 16.2612C29.6694 15.6587 29.7324 14.9731 29.7246 14.7378C29.705 14.1467 29.8592 13.5345 30.1583 13.0159C30.4696 12.4762 30.4756 12.318 30.1873 12.2475C29.9824 12.1974 29.9657 12.1592 29.9898 11.7966C30.0136 11.4382 30.0385 11.398 30.2516 11.374C30.6865 11.325 30.7155 11.4963 30.7474 14.3099C30.7752 16.7596 30.7326 17.7772 30.6023 17.7743C30.5695 17.7736 30.4835 17.7357 30.4111 17.69Z" fill="#F5D999"/>
<path id="path25125-5" d="M29.2485 22.5683C29.137 22.5343 29.118 22.3934 29.127 21.668C29.1313 21.3168 29.1355 21.1676 29.1447 21.0345C29.1887 20.3997 29.3301 20.0422 29.5634 19.9752C29.6065 19.9628 29.6765 19.9627 29.725 19.9749C29.8898 20.0166 30.0595 20.1448 30.2892 20.4009C30.4339 20.5624 30.557 20.669 30.7184 20.773C30.8387 20.8505 30.9577 20.9134 31.0781 20.9632C31.0983 20.9716 31.1163 20.9797 31.1181 20.9813C31.1198 20.9828 31.1132 20.9852 31.1034 20.9865C31.0256 20.9969 30.963 21.0979 30.9292 21.2673C30.9034 21.3968 30.8965 21.4863 30.8921 21.7472C30.8876 22.0102 30.8857 22.0593 30.8783 22.1113C30.8666 22.1926 30.8457 22.2431 30.8092 22.2781C30.7846 22.3018 30.7787 22.3059 30.7455 22.3218C30.6747 22.3558 30.6249 22.3657 30.1743 22.4353C29.8349 22.4877 29.649 22.5177 29.4625 22.5504C29.3179 22.5758 29.2831 22.5787 29.2485 22.5681V22.5683Z" fill="#F5D999"/>
</g>
<path id="path159" d="M25.7804 58.2491C23.99 58.2213 23.743 58.2077 23.6229 58.131C23.5483 58.0834 23.4872 58.0161 23.4872 57.9815C23.4872 57.9469 23.3491 57.7194 23.1801 57.4759C22.7669 56.8802 22.7379 56.7838 22.7379 56.0069C22.7379 55.2299 22.7668 55.1335 23.1801 54.5378C23.3491 54.2943 23.4872 54.0668 23.4872 54.0322C23.4872 53.9976 23.5461 53.9317 23.6182 53.8857C23.7347 53.8113 24.094 53.7977 26.8834 53.7622C30.0239 53.7221 36.1447 53.7742 36.3187 53.8424C36.3696 53.8623 36.4596 53.9723 36.5187 54.0866C36.5778 54.2009 36.7289 54.4357 36.8544 54.6083C37.2071 55.0935 37.2523 55.2522 37.2523 56.0069C37.2523 56.7765 37.2192 56.8848 36.8007 57.4838C36.6409 57.7124 36.5102 57.9321 36.5102 57.9719C36.5102 58.0118 36.4517 58.0818 36.3801 58.1275C36.1592 58.2685 30.8979 58.3289 25.7804 58.2491ZM35.9227 57.7584C36.0514 57.7271 36.1486 57.6265 36.3974 57.266C36.7722 56.723 36.8405 56.4915 36.8095 55.8683C36.7838 55.3519 36.7318 55.2107 36.3953 54.742C36.2738 54.5727 36.1496 54.393 36.1193 54.3426C36.0684 54.2579 35.916 54.2476 34.1038 54.2056C32.0425 54.1578 24.4224 54.1987 24.1007 54.2592C23.9389 54.2897 23.8744 54.3497 23.631 54.6974C23.2456 55.2477 23.2325 55.2762 23.1802 55.682C23.1243 56.1159 23.1891 56.62 23.3339 56.8779C23.4325 57.0536 23.858 57.6692 23.9284 57.7381C23.9965 57.8047 26.5317 57.832 31.0582 57.8151C33.6447 57.8055 35.8337 57.7798 35.9227 57.7584ZM20.464 55.1746C20.4072 55.1499 20.0235 55.0015 19.6113 54.8449C14.2822 52.8198 9.62429 49.1347 6.40603 44.3975C3.83904 40.6188 2.34412 36.4857 1.85178 31.8059C1.74319 30.7735 1.72677 27.9257 1.82368 26.9455C2.17029 23.442 2.95518 20.5655 4.37997 17.5774C7.15091 11.7662 12.0993 6.94791 18.0609 4.25632C21.1169 2.87663 24.0656 2.11421 27.6473 1.77763C28.653 1.68315 31.575 1.69919 32.6343 1.80506C36.2473 2.1661 39.2343 2.98597 42.3757 4.47894C50.912 8.53581 56.7625 16.4404 58.0035 25.5938C58.3344 28.0342 58.3171 30.7923 57.9556 33.2328C56.7654 41.2675 51.9344 48.3963 44.7529 52.7148C42.9615 53.792 39.5754 55.3043 39.1744 55.2062C38.9752 55.1575 38.6755 54.874 38.5565 54.6219C38.4616 54.4209 38.4475 54.2781 38.4319 53.3627C38.422 52.7948 38.3987 52.3143 38.3795 52.2949C38.3604 52.2757 38.2518 52.2798 38.1381 52.3042C37.3927 52.4649 34.529 52.8029 32.7682 52.9379C31.2538 53.0541 27.9623 53.0162 26.407 52.8647C24.9622 52.724 23.3719 52.5277 22.4573 52.3772C22.0472 52.3097 21.6836 52.2546 21.6493 52.2546C21.6032 52.2546 21.5804 52.5293 21.5625 53.2997C21.5368 54.3989 21.5067 54.5649 21.2777 54.8653C21.044 55.1719 20.7317 55.2906 20.464 55.1746ZM21.0071 54.8346C21.2691 54.5793 21.364 54.2764 21.2531 54.0497C21.0911 53.7186 20.2139 53.3841 18.2656 52.9102C17.6841 52.7688 17.1122 52.6181 16.9947 52.5752C16.546 52.4114 16.2044 51.998 16.2017 51.6155C16.2017 51.5272 16.2583 51.2779 16.3289 51.0615C16.4776 50.6052 16.8899 48.445 16.9758 47.6713C17.0082 47.3804 17.0576 47.0096 17.086 46.8472C17.1347 46.5677 17.131 46.5477 17.0177 46.4707C16.6773 46.2393 15.587 45.3528 15.0706 44.8878C13.1962 43.1996 11.53 41.0331 10.3712 38.7772C9.2829 36.6587 8.5836 34.4172 8.23589 31.9327C8.10002 30.9615 8.04524 28.5597 8.135 27.5091C8.81894 19.5043 13.9579 12.6084 21.5559 9.49993C23.6105 8.65936 25.9169 8.11602 28.2256 7.92864C29.3036 7.84116 31.7681 7.89466 32.7645 8.02701C38.5834 8.80051 43.5403 11.5299 47.1855 15.9677C48.7542 17.8775 49.981 20.0982 50.8017 22.5133C51.2986 23.9758 51.5892 25.2434 51.7888 26.8196C51.9214 27.8667 51.9223 30.5717 51.7888 31.6039C51.2465 35.8474 49.7242 39.392 47.0299 42.685C46.329 43.5416 44.6181 45.1993 43.7029 45.9085C43.2276 46.2768 42.9744 46.5053 42.9919 46.5499C43.0316 46.6507 43.1106 47.1857 43.1502 47.6209C43.2022 48.1928 43.683 50.7175 43.7911 50.9861C44.0092 51.528 43.9692 51.9151 43.6634 52.222C43.4181 52.4681 43.133 52.5786 42.0806 52.8353C39.8624 53.3765 39.0051 53.6972 38.8416 54.0469C38.6997 54.3506 38.8268 54.7675 39.1179 54.9535C39.2471 55.036 39.2691 55.0324 39.7793 54.8489C46.3652 52.4789 51.9167 47.6117 55.0891 41.4259C57.8824 35.9794 58.7202 29.8288 57.487 23.8228C56.5665 19.3397 54.524 15.2238 51.4133 11.5838C50.7134 10.7648 49.041 9.12826 48.188 8.4277C41.1143 2.61772 31.9375 0.550989 22.9948 2.75392C21.1467 3.2092 19.47 3.81932 17.6203 4.7096C14.6705 6.12932 12.5211 7.63341 10.1758 9.91908C8.35745 11.6913 7.11965 13.2357 5.81426 15.3613C5.31555 16.1733 4.28737 18.2123 3.9221 19.1136C2.09677 23.6176 1.52662 28.452 2.24984 33.2917C2.82385 37.1325 4.32938 40.9584 6.56063 44.2464C8.70695 47.4091 11.2941 49.9305 14.5453 52.028C16.3691 53.2046 18.1287 54.0875 20.075 54.8025C20.4018 54.9226 20.7011 55.0217 20.74 55.0228C20.7788 55.0228 20.8984 54.9392 21.0057 54.8346H21.0071ZM33.6937 52.6637C36.9418 52.3373 38.6299 52.0645 39.8183 51.6739C40.9149 51.3135 42.2843 51.0009 43.1406 50.9154C43.3856 50.891 43.4869 50.8602 43.4869 50.8104C43.4869 50.7717 43.3814 50.1812 43.2526 49.4981C43.1238 48.815 42.9839 47.9488 42.9416 47.5733C42.8993 47.1978 42.8308 46.7752 42.7892 46.6341C42.5836 45.937 42.2193 45.8533 40.8317 46.1417C39.0203 46.5181 35.9349 46.8024 32.4018 46.9885C31.6059 47.0305 30.7688 47.0751 30.5414 47.0877C30.0929 47.1124 28.7742 47.0599 26.8205 46.9391C23.6008 46.7401 21.3331 46.4896 19.5279 46.1333C18.3037 45.9702 17.8106 45.9044 17.5316 46.2682C17.3501 46.5049 17.2996 46.6929 17.2084 47.4698C17.1297 48.1398 16.9804 49.0294 16.7479 50.2147C16.6826 50.5472 16.6389 50.8361 16.6505 50.8569C16.6622 50.8779 16.7349 50.8947 16.8121 50.8947C17.3522 50.8947 19.3301 51.3377 20.3865 51.6952C21.3287 52.0141 23.0064 52.3005 25.4418 52.5583C27.5538 52.7819 27.9794 52.8018 30.3347 52.787C32.2217 52.7754 32.7931 52.7541 33.6937 52.6637ZM31.9625 46.8137C35.7543 46.6233 38.8567 46.297 40.8318 45.8808C41.5047 45.7391 42.1079 45.7206 42.3846 45.8332C42.487 45.875 42.6465 45.9872 42.7389 46.0827C42.9069 46.2563 42.9069 46.2563 43.5974 45.7174C44.4896 45.021 45.6322 43.934 46.5819 42.8781C47.3358 42.04 47.6017 41.7138 47.7251 41.4762C47.761 41.4069 47.8806 41.2256 47.9908 41.0733C48.9102 39.8024 49.4585 38.792 50.2326 36.9432C50.598 36.0706 51.1093 34.3169 51.3387 33.1494C51.6093 31.7724 51.6734 31.0225 51.6731 29.2372C51.6728 27.9505 51.652 27.3885 51.585 26.87C51.4673 25.9589 51.2635 24.8799 51.0787 24.1884C50.9953 23.8765 50.9053 23.5307 50.8786 23.4199C50.623 22.3566 49.7379 20.2794 48.9685 18.9373C46.0372 13.8241 41.0223 10.0835 35.2344 8.69316C33.4521 8.26499 31.89 8.08309 30.0033 8.08388C28.2442 8.08388 27.0662 8.20118 25.4554 8.53398C20.2495 9.60948 15.5755 12.5754 12.4094 16.8124C11.1218 18.5356 9.92333 20.8393 9.29963 22.7903C8.58662 25.0208 8.2953 26.89 8.29424 29.2417C8.29424 31.0349 8.46972 32.5149 8.8867 34.2168C9.11317 35.1411 9.64088 36.7312 9.91691 37.321C9.95581 37.4041 10.0034 37.5231 10.0227 37.5854C10.0421 37.6477 10.0769 37.6987 10.1004 37.6987C10.1236 37.6987 10.1584 37.7611 10.1773 37.8372C10.2251 38.0295 10.6645 38.9507 10.7956 39.1335C10.855 39.2163 10.9405 39.3638 10.9858 39.4613C11.1733 39.8653 12.3706 41.6748 12.7852 42.181C13.9051 43.548 15.5517 45.1236 16.8891 46.1076C17.1881 46.3277 17.1881 46.3276 17.3496 46.1368C17.6943 45.7291 18.2516 45.6578 19.3246 45.8839C21.0624 46.25 23.5708 46.5346 26.8722 46.74C29.7753 46.9206 29.8217 46.9212 31.9625 46.8137Z" fill="#FBFAFA"/>
<g id="text193">
<path id="path1344" d="M27.6335 57.2021H26.2753C26.2753 57.1455 26.2789 57.0957 26.2859 57.0528C26.2929 57.0075 26.3069 56.9509 26.3278 56.8831C26.351 56.8129 26.3916 56.7405 26.4496 56.6658C26.51 56.5889 26.5854 56.5132 26.676 56.4385L27.0103 56.1602C27.2331 55.9769 27.3446 55.7574 27.3446 55.5017C27.3446 55.3253 27.3005 55.1895 27.2122 55.0945C27.124 54.9972 26.9987 54.9486 26.8362 54.9486C26.7224 54.9486 26.6191 54.9859 26.5262 55.0606C26.4357 55.1329 26.3904 55.2144 26.3904 55.305C26.3904 55.4022 26.438 55.4588 26.5331 55.4746C26.6074 55.4858 26.662 55.5107 26.6969 55.5493C26.734 55.5855 26.7525 55.6296 26.7525 55.6816C26.7525 55.7246 26.7363 55.7608 26.7038 55.7902C26.6736 55.8197 26.6307 55.8344 26.575 55.8344C26.4798 55.8344 26.4008 55.7982 26.3382 55.7258C26.2755 55.6511 26.2441 55.5538 26.2441 55.4339C26.2441 55.2597 26.3091 55.1148 26.4391 54.9995C26.5715 54.8841 26.7363 54.8264 26.9336 54.8264C27.1611 54.8264 27.348 54.8875 27.4943 55.0097C27.6405 55.1296 27.7137 55.2936 27.7137 55.5017C27.7137 55.5764 27.6974 55.6488 27.6649 55.719C27.6324 55.7891 27.5848 55.8559 27.5221 55.9192C27.4594 55.9826 27.4037 56.0346 27.355 56.0753C27.3062 56.1138 27.2448 56.159 27.1705 56.2111L26.8292 56.469C26.6272 56.607 26.5262 56.7315 26.5262 56.8423C26.5262 56.8966 26.5622 56.9238 26.6342 56.9238H27.2923C27.3852 56.9238 27.4502 56.9046 27.4873 56.8661C27.5268 56.8254 27.5535 56.7688 27.5674 56.6964L27.6057 56.4962H27.6824L27.6335 57.2021Z" fill="#C1E1FF" stroke="#C1E1FF" stroke-width="0.6"/>
<path id="path1346" d="M29.016 57.1478C29.0973 57.1478 29.168 57.1229 29.2284 57.0731C29.2911 57.0211 29.3375 56.96 29.3677 56.8898C29.4002 56.8175 29.4257 56.727 29.4443 56.6184C29.4629 56.5097 29.4744 56.4136 29.4791 56.3299C29.4838 56.2462 29.4862 56.1511 29.4862 56.0448C29.4862 55.9362 29.4838 55.84 29.4791 55.7563C29.4744 55.6726 29.4629 55.5764 29.4443 55.4678C29.4258 55.3592 29.4002 55.2699 29.3677 55.1997C29.3375 55.1273 29.2911 55.0662 29.2284 55.0165C29.168 54.9644 29.0973 54.9384 29.016 54.9384C28.9348 54.9384 28.8627 54.9644 28.8001 55.0165C28.7397 55.0662 28.6933 55.1273 28.6608 55.1997C28.6306 55.2699 28.6063 55.3592 28.5877 55.4678C28.5692 55.5764 28.5575 55.6726 28.5528 55.7563C28.5481 55.84 28.5458 55.9362 28.5458 56.0448C28.5458 56.1511 28.5481 56.2462 28.5528 56.3299C28.5575 56.4136 28.5692 56.5097 28.5877 56.6184C28.6062 56.727 28.6306 56.8175 28.6608 56.8898C28.6933 56.96 28.7397 57.0211 28.8001 57.0731C28.8627 57.1229 28.9348 57.1478 29.016 57.1478ZM29.016 57.2564C28.8535 57.2564 28.706 57.1976 28.5737 57.0799C28.4437 56.96 28.3451 56.8084 28.2777 56.6251C28.2104 56.4419 28.1768 56.2473 28.1768 56.0414C28.1768 55.8355 28.2104 55.6409 28.2777 55.4576C28.3451 55.2744 28.4437 55.1239 28.5737 55.0063C28.706 54.8864 28.8535 54.8264 29.016 54.8264C29.1785 54.8264 29.3247 54.8864 29.4547 55.0063C29.5871 55.1239 29.6869 55.2744 29.7542 55.4576C29.8215 55.6409 29.8552 55.8355 29.8552 56.0414C29.8552 56.2473 29.8215 56.4419 29.7542 56.6251C29.6869 56.8084 29.5871 56.96 29.4547 57.0799C29.3247 57.1976 29.1785 57.2564 29.016 57.2564Z" fill="#C1E1FF" stroke="#C1E1FF" stroke-width="0.6"/>
<path id="path1348" d="M30.4443 57.2021V57.0935H30.7786C30.8436 57.0935 30.8761 57.0641 30.8761 57.0052V55.3388H30.4443V55.2166H30.6358C30.7612 55.2166 30.8622 55.1838 30.9388 55.1182C31.0177 55.0526 31.0665 54.9734 31.0851 54.8806H31.1965V57.0052C31.1965 57.0641 31.229 57.0935 31.294 57.0935H31.6283V57.2021H30.4443Z" fill="#C1E1FF" stroke="#C1E1FF" stroke-width="0.6"/>
<path id="path1350" d="M32.4084 54.8806H33.7456C33.7456 54.9983 33.727 55.1329 33.6899 55.2845C33.655 55.4361 33.5947 55.5741 33.5088 55.6986L33.3104 55.9905C33.2152 56.1692 33.1675 56.3163 33.1675 56.4316C33.1675 56.5289 33.1745 56.6138 33.1883 56.6862L33.2091 56.805C33.2277 56.8955 33.2369 56.9747 33.2369 57.0425C33.2369 57.1851 33.1684 57.2564 33.0314 57.2564C32.9478 57.2564 32.8805 57.227 32.8295 57.1681C32.7807 57.1093 32.7563 57.0301 32.7563 56.9306C32.7563 56.8604 32.7703 56.7812 32.7982 56.693C32.8283 56.6047 32.8562 56.5368 32.8817 56.4893C32.9072 56.4396 32.9514 56.3615 33.014 56.2552C33.0767 56.1488 33.1127 56.0877 33.122 56.0719L33.4006 55.6816C33.519 55.5164 33.5781 55.3717 33.5781 55.2472C33.5781 55.1884 33.5422 55.159 33.4702 55.159H32.7494C32.6565 55.159 32.5904 55.1793 32.5509 55.22C32.5138 55.2585 32.4882 55.3139 32.4743 55.3863L32.4359 55.5866H32.3594L32.4084 54.8806Z" fill="#C1E1FF" stroke="#C1E1FF" stroke-width="0.6"/>
</g>
<g id="text3828-3-9-1">
<path id="path1256" d="M10.5863 44.037C10.8543 43.8411 11.0775 43.6453 11.2558 43.4494C11.4341 43.2535 11.5597 43.0816 11.6327 42.9335C11.7057 42.7854 11.7482 42.6559 11.7601 42.5452C11.7684 42.4297 11.7492 42.3417 11.7027 42.2811C11.4658 41.9733 10.8282 42.1988 9.78969 42.9578C8.75116 43.7168 8.35033 44.2502 8.58719 44.5581C8.66973 44.6653 8.81384 44.7166 9.0196 44.712C9.22181 44.7028 9.46414 44.6386 9.74649 44.5196C10.0289 44.4007 10.3088 44.2399 10.5863 44.037ZM14.7857 43.0229L14.4843 42.6311C14.452 42.5891 14.4209 42.5681 14.391 42.5681C14.3623 42.5601 14.3263 42.5718 14.2832 42.6033L9.81813 45.8666C9.77505 45.898 9.75351 45.9284 9.75351 45.9575C9.74501 45.9855 9.75707 46.0205 9.7896 46.0624L10.091 46.4542L9.91874 46.5802L8.90672 45.2648L9.32305 44.9606L9.2907 44.9186C9.10646 44.9512 8.92093 44.9483 8.73429 44.9097C8.54767 44.8712 8.39699 44.7774 8.28214 44.6281C8.09552 44.3856 8.01303 44.1034 8.0346 43.7815C8.05621 43.4597 8.16389 43.1478 8.35769 42.8459C8.55152 42.5439 8.79917 42.2828 9.10067 42.0624C9.40218 41.842 9.72703 41.6811 10.0752 41.5797C10.4233 41.4783 10.7571 41.4603 11.0765 41.5256C11.396 41.5909 11.649 41.7449 11.8356 41.9874C11.9504 42.1367 12.0073 42.3028 12.0061 42.4859C12.0036 42.6689 11.9527 42.8555 11.8535 43.0455L11.9001 43.0771L13.6588 41.7917C13.7019 41.7602 13.7253 41.7323 13.7289 41.7078C13.7337 41.6751 13.72 41.6378 13.6876 41.5958L13.3862 41.204L13.5584 41.0781L14.958 42.8972L14.7857 43.0229Z" fill="#C1E1FF"/>
<path id="path1258" d="M6.87161 41.9966L6.67651 42.0853L5.74733 40.1436L5.94242 40.0549L6.05246 40.2847C6.07528 40.3323 6.11575 40.3685 6.17388 40.3936C6.22953 40.4132 6.28988 40.4082 6.35493 40.3787C6.41456 40.3515 6.48161 40.2985 6.55607 40.2197L8.17401 38.4904L6.14659 38.7847C5.97708 38.8167 5.84898 38.8524 5.76226 38.8919C5.68093 38.9288 5.62051 38.982 5.58112 39.0514C5.53629 39.1232 5.53295 39.1988 5.57098 39.278L5.66955 39.4841L5.47437 39.5728L4.84863 38.2651L5.04382 38.1764L5.12719 38.3507C5.1727 38.4458 5.26038 38.5186 5.39011 38.569C5.51729 38.6141 5.67356 38.6234 5.85896 38.597L10.542 37.9351C11.289 37.8271 11.7548 37.966 11.9393 38.3517C12.043 38.5683 12.0588 38.7735 11.9865 38.9672C11.9141 39.1609 11.7668 39.3082 11.5445 39.4092C11.3656 39.4906 11.1818 39.5065 10.9932 39.4572C10.8046 39.4078 10.6699 39.2986 10.589 39.1296C10.5283 39.0027 10.5169 38.8825 10.5547 38.7687C10.5956 38.6472 10.6729 38.5606 10.7868 38.5088C10.9223 38.4472 11.0602 38.4457 11.2004 38.5042C11.3008 38.5486 11.389 38.5536 11.4649 38.5191C11.5137 38.4969 11.5495 38.4613 11.5723 38.4124C11.6005 38.361 11.6005 38.3063 11.5723 38.2481C11.5419 38.1847 11.4761 38.1439 11.3749 38.1255C11.2712 38.1019 11.1778 38.0929 11.0947 38.0985C11.0091 38.0985 10.9045 38.1075 10.7808 38.1255L9.76119 38.2706L7.0507 41.1719C6.91263 41.3248 6.82358 41.4489 6.78343 41.5443C6.74077 41.6345 6.75107 41.7456 6.81437 41.8777L6.87161 41.9966Z" fill="#C1E1FF"/>
<path id="path1260" d="M6.59397 36.7229C6.19369 36.8212 5.81214 36.8366 5.44934 36.7694C5.08651 36.7021 4.77073 36.5542 4.50193 36.3256C4.23311 36.097 4.05409 35.8102 3.96499 35.4654C3.91242 35.2618 3.89981 35.0695 3.92704 34.8885C3.9543 34.7074 4.01421 34.5575 4.10685 34.4385C4.19804 34.314 4.30663 34.2091 4.43269 34.1241C4.55298 34.0405 4.68278 33.9816 4.822 33.9474C5.03083 33.8962 5.22956 33.9135 5.41832 33.9994C5.60127 34.0868 5.7154 34.2181 5.76069 34.3934C5.79428 34.5234 5.78432 34.6401 5.73083 34.7434C5.67151 34.8481 5.5752 34.9169 5.44178 34.9496C5.27936 34.9895 5.1022 34.9367 4.91044 34.7914C4.75938 34.6842 4.62295 34.6456 4.50113 34.6755C4.37932 34.7054 4.28007 34.7748 4.20338 34.8838C4.12086 34.9942 4.10522 35.1484 4.15636 35.3462C4.28929 35.8607 5.00829 35.9578 6.31345 35.6375C6.52228 35.5862 6.67896 35.5478 6.78338 35.5221C6.88053 35.4923 6.99718 35.4546 7.13349 35.4091C7.26831 35.358 7.38718 35.3048 7.49009 35.2495C7.69158 35.1459 7.83722 35.005 7.92686 34.8267C8.01649 34.6484 8.03719 34.4659 7.98898 34.2794C7.95246 34.138 7.88111 34.0172 7.77504 33.917C7.66747 33.8112 7.54333 33.7365 7.40254 33.6929C7.26026 33.6436 7.11005 33.6113 6.9519 33.596C6.79373 33.5806 6.63775 33.5859 6.48402 33.6116L6.42705 33.3911C6.56918 33.3682 6.71133 33.3573 6.85351 33.3585C6.99569 33.3585 7.14301 33.3795 7.29543 33.4214C7.44783 33.4622 7.58862 33.5178 7.71789 33.5883C7.84713 33.6588 7.96342 33.7625 8.06667 33.8995C8.16992 34.0364 8.24565 34.1982 8.29385 34.3848C8.43115 34.9162 8.33482 35.4028 8.00481 35.8445C7.67334 36.2805 7.20305 36.5733 6.59397 36.7228V36.7229Z" fill="#C1E1FF"/>
<path id="path1262" d="M5.58758 32.3337C5.17548 32.3562 4.79785 32.3009 4.45468 32.1678C4.11151 32.0347 3.83019 31.8311 3.61074 31.557C3.3913 31.2829 3.27144 30.9683 3.25103 30.6132C3.23889 30.4036 3.26381 30.2125 3.32587 30.0398C3.38785 29.8671 3.47593 29.7309 3.59003 29.6312C3.70378 29.5258 3.83082 29.4429 3.97116 29.3827C4.10552 29.3228 4.24441 29.289 4.38775 29.2811C4.60274 29.2693 4.79454 29.3231 4.96318 29.4424C5.12582 29.562 5.21226 29.712 5.22263 29.8925C5.23039 30.0264 5.19799 30.1391 5.1253 30.2306C5.04669 30.3225 4.93869 30.3722 4.80132 30.3797C4.63409 30.3889 4.47044 30.3044 4.31042 30.1262C4.18295 29.993 4.0565 29.9298 3.93107 29.9367C3.80566 29.9435 3.69473 29.9934 3.5982 30.0862C3.49571 30.1794 3.45031 30.3279 3.46204 30.5316C3.49247 31.0613 4.1796 31.2895 5.52341 31.2161C5.73842 31.2043 5.89961 31.1956 6.00711 31.1899C6.10832 31.1785 6.23028 31.1631 6.37295 31.1436C6.5153 31.1183 6.64237 31.0881 6.75417 31.0528C6.97214 30.9883 7.14244 30.8769 7.26515 30.7183C7.38784 30.5598 7.44374 30.3845 7.4327 30.1924C7.42444 30.0469 7.37793 29.9151 7.29315 29.7971C7.20815 29.6733 7.10073 29.577 6.97095 29.5082C6.84086 29.4335 6.69966 29.3741 6.54734 29.3299C6.39501 29.2856 6.24084 29.2619 6.08488 29.2587L6.07181 29.0317C6.21584 29.0355 6.35749 29.0511 6.49685 29.0786C6.63624 29.106 6.77682 29.1538 6.91851 29.222C7.06023 29.2901 7.18768 29.3708 7.30088 29.4639C7.41408 29.557 7.508 29.6803 7.58273 29.8338C7.65744 29.9874 7.70039 30.1603 7.71143 30.3523C7.74286 30.8995 7.55359 31.3595 7.14365 31.7322C6.73335 32.0991 6.21469 32.2995 5.58758 32.3337Z" fill="#C1E1FF"/>
<path id="path1264" d="M7.50975 28.182L7.29643 28.154L7.34211 27.8247C7.34939 27.7727 7.34529 27.7368 7.32976 27.7172C7.30937 27.6909 7.27248 27.6743 7.21901 27.6672L3.7156 27.2051C3.66226 27.198 3.62514 27.2049 3.60415 27.2257C3.57803 27.2399 3.56134 27.273 3.5541 27.325L3.50833 27.6543L3.29492 27.6263L3.5573 25.7371L3.77071 25.7651L3.73223 26.0424C3.72494 26.0944 3.73159 26.1335 3.75222 26.1597C3.76751 26.1794 3.80182 26.1927 3.85524 26.1998L5.43798 26.4086L5.51388 25.8626C5.53063 25.7413 5.49563 25.6455 5.40891 25.5753C5.32209 25.505 5.20157 25.4596 5.04742 25.4393L4.44284 25.3596C4.14645 25.3205 3.92864 25.2152 3.78947 25.0439C3.65107 24.8668 3.59668 24.6714 3.62637 24.4577C3.65525 24.2497 3.7404 24.0932 3.88173 23.9883C4.02306 23.8834 4.19742 23.8447 4.40489 23.872C4.56496 23.8931 4.69327 23.9688 4.78984 24.0993C4.88642 24.2297 4.92588 24.3584 4.90823 24.4855C4.89052 24.6126 4.83718 24.7144 4.74816 24.7909C4.65906 24.8674 4.55222 24.8975 4.42773 24.881C4.35067 24.8709 4.27176 24.831 4.19086 24.7615C4.13208 24.7067 4.08189 24.6766 4.04038 24.6711C3.98703 24.664 3.9564 24.6894 3.94839 24.7472C3.93722 24.8281 3.972 24.9033 4.05283 24.9728C4.13372 25.0423 4.27202 25.0899 4.46764 25.1157L5.08111 25.1967C5.22339 25.2153 5.33367 25.2475 5.41184 25.2932C5.49002 25.3389 5.55269 25.4089 5.59992 25.5034L5.64436 25.509C5.72759 25.2141 5.86642 24.9971 6.06078 24.858C6.25596 24.7131 6.53137 24.6641 6.88703 24.7111L7.46504 24.7873C7.6251 24.8084 7.71395 24.7554 7.7316 24.6283C7.75888 24.4319 7.48793 24.2961 6.91885 24.2211L6.95014 23.9958C7.34139 24.0474 7.63575 24.145 7.8331 24.2887C8.03047 24.4324 8.10867 24.6516 8.06775 24.9462C8.02843 25.2293 7.92305 25.4449 7.7516 25.5928C7.58012 25.7408 7.34617 25.7953 7.04978 25.7562L6.34734 25.6635C6.17542 25.6408 6.03683 25.6608 5.93154 25.7234C5.82628 25.786 5.76564 25.8751 5.7496 25.9906L5.68703 26.4413L7.35864 26.6618C7.41199 26.6689 7.45179 26.6653 7.47792 26.6511C7.4988 26.6303 7.5129 26.5939 7.52023 26.542L7.55872 26.2647L7.77213 26.2927L7.50975 28.182Z" fill="#C1E1FF"/>
<path id="path1266" d="M5.24492 21.1651C5.51044 21.358 5.97788 21.5725 6.64722 21.8087C7.31656 22.0448 7.81654 22.1716 8.14721 22.1891C8.4779 22.2066 8.68807 22.0947 8.77765 21.8535C8.86726 21.6123 8.77931 21.3953 8.51376 21.2024C8.24823 21.0095 7.7808 20.795 7.11145 20.5588C6.44213 20.3227 5.94216 20.1958 5.61147 20.1784C5.28078 20.1609 5.07061 20.2727 4.98102 20.514C4.89144 20.7552 4.97939 20.9722 5.24492 21.1651ZM7.1519 23.0191C6.85293 23.019 6.55441 22.9664 6.25631 22.8612C5.95819 22.756 5.69702 22.6112 5.4729 22.4267C5.24315 22.2403 5.06685 22.0386 4.94387 21.8216C4.81528 21.6026 4.73517 21.3728 4.70362 21.1323C4.67209 20.8917 4.69709 20.6618 4.77855 20.4425C4.86 20.2233 4.99179 20.0311 5.17399 19.866C5.35619 19.7008 5.56864 19.5743 5.81128 19.4863C6.04826 19.3963 6.31623 19.3513 6.61522 19.3514C6.90856 19.349 7.20433 19.4007 7.50245 19.5063C7.80055 19.6115 8.06447 19.7573 8.29422 19.9437C8.51834 20.1282 8.69464 20.3299 8.82325 20.5489C8.94623 20.7659 9.02353 20.9947 9.05506 21.2352C9.08658 21.4757 9.06158 21.7057 8.98013 21.925C8.8987 22.1442 8.76691 22.3364 8.58469 22.5015C8.40249 22.6667 8.19285 22.7942 7.95584 22.8842C7.71323 22.9722 7.44526 23.0172 7.1519 23.0191Z" fill="#C1E1FF"/>
<path id="path1268" d="M9.87443 19.5233L9.68858 19.4173L9.86065 19.1305C9.88784 19.0852 9.89825 19.0506 9.89194 19.0266C9.88344 18.9947 9.85594 18.9656 9.80937 18.9391L6.75749 17.1999C6.71101 17.1734 6.67402 17.1658 6.64647 17.1772C6.61674 17.1805 6.5883 17.2048 6.56114 17.2501L6.38898 17.537L6.20312 17.4311L7.83359 14.7134L9.39446 15.542L9.26763 15.7535C9.07996 15.6735 8.80788 15.613 8.45142 15.572C8.23873 15.5453 8.02602 15.5591 7.81324 15.6135C7.60349 15.6628 7.45336 15.7629 7.36278 15.9139L7.23141 16.1329C7.20423 16.1782 7.19492 16.2168 7.20341 16.2486C7.20972 16.2726 7.23618 16.2978 7.28278 16.3243L10.3347 18.0634C10.3811 18.0899 10.4192 18.1015 10.4489 18.0982C10.4765 18.0868 10.5038 18.0586 10.531 18.0133L10.7032 17.7264L10.889 17.8324L9.87443 19.5233Z" fill="#C1E1FF"/>
<path id="path1270" d="M9.99167 12.9331C10.1672 13.2068 10.5228 13.5722 11.0584 14.0291C11.5941 14.4861 12.0126 14.7812 12.3142 14.9146C12.6158 15.0479 12.8533 15.018 13.0267 14.825C13.2 14.632 13.1988 14.3986 13.023 14.1249C12.8475 13.8512 12.4919 13.4859 11.9563 13.0289C11.4206 12.572 11.0021 12.2768 10.7005 12.1435C10.3989 12.0101 10.1614 12.04 9.98803 12.233C9.81466 12.426 9.81588 12.6594 9.99167 12.9331ZM11.0776 15.3355C10.799 15.2296 10.5404 15.0749 10.3019 14.8713C10.0633 14.6678 9.87407 14.4405 9.734 14.1892C9.58945 13.9342 9.50027 13.6838 9.46655 13.4381C9.42835 13.1885 9.43942 12.9462 9.49971 12.7109C9.55997 12.4756 9.66885 12.2702 9.82644 12.0948C9.98406 11.9193 10.1786 11.7869 10.4099 11.6975C10.6412 11.6082 10.8863 11.5655 11.1451 11.5693C11.3995 11.5694 11.6659 11.6224 11.9444 11.7283C12.2185 11.8304 12.4747 11.9832 12.7133 12.1867C12.9518 12.3902 13.1433 12.6195 13.2879 12.8746C13.428 13.1258 13.5171 13.3761 13.5553 13.6257C13.5891 13.8714 13.5758 14.1119 13.5155 14.3472C13.4553 14.5824 13.3463 14.7878 13.1887 14.9633C13.0311 15.1388 12.8367 15.2711 12.6054 15.3605C12.3741 15.4498 12.1312 15.4945 11.8769 15.4944C11.618 15.4906 11.3516 15.4377 11.0776 15.3355Z" fill="#C1E1FF"/>
<path id="path1272" d="M16.1282 10.4837L16.3331 10.375C16.4474 10.5798 16.5657 10.7428 16.6878 10.8639C16.8099 10.985 16.9208 11.0191 17.0206 10.9662C17.1363 10.9049 17.1555 10.8051 17.0782 10.6668L16.7995 10.1675C16.628 9.86021 16.5743 9.59331 16.6385 9.3668C16.708 9.13749 16.8693 8.93246 17.1225 8.75171L17.1011 8.71329C16.9884 8.70667 16.8963 8.67588 16.8248 8.62091C16.7584 8.56314 16.691 8.47281 16.6224 8.3499L16.3265 7.81988C16.2321 7.65089 16.1372 7.54189 16.0418 7.49295C15.9463 7.44399 15.8619 7.43902 15.7883 7.47805C15.7357 7.50589 15.7224 7.54287 15.7481 7.58898C15.768 7.62481 15.8148 7.65976 15.8884 7.69379C15.9838 7.74276 16.05 7.80053 16.0872 7.86709C16.1472 7.97465 16.1565 8.08262 16.1149 8.19098C16.0733 8.29934 15.9946 8.38418 15.879 8.44549C15.7582 8.50957 15.618 8.5208 15.4586 8.47919C15.3045 8.43483 15.1888 8.34354 15.1116 8.20528C15.0116 8.02605 14.9866 7.8534 15.037 7.68734C15.0873 7.52129 15.207 7.3881 15.3961 7.28778C15.5906 7.18469 15.7947 7.16606 16.0085 7.23186C16.2276 7.2949 16.4086 7.45445 16.5515 7.71051L16.8431 8.23282C16.9175 8.36597 17.0038 8.45959 17.1021 8.51366C17.2056 8.56495 17.31 8.56273 17.415 8.50695L17.7618 8.32304L16.9985 6.95574C16.9728 6.90964 16.9451 6.88446 16.9155 6.88025C16.8883 6.86818 16.8511 6.87471 16.8038 6.89978L16.5042 7.05861L16.4013 6.87423L18.1195 5.9631L18.2224 6.14748L17.9703 6.28119C17.923 6.30626 17.8945 6.33463 17.8849 6.36626C17.8777 6.38998 17.8869 6.42488 17.9126 6.47099L18.6759 7.83829L19.0227 7.65438C19.1278 7.59865 19.1837 7.51587 19.1905 7.40607C19.2027 7.29349 19.1715 7.17063 19.0971 7.03747L18.8055 6.51516C18.6625 6.2591 18.6209 6.02573 18.6803 5.81501C18.745 5.60151 18.8745 5.44317 19.0689 5.34009C19.258 5.23977 19.4378 5.21413 19.6082 5.26316C19.7786 5.3122 19.9138 5.42636 20.0139 5.60559C20.091 5.74386 20.1043 5.88947 20.0535 6.04249C20.008 6.19275 19.9248 6.29992 19.8039 6.364C19.6883 6.42532 19.5726 6.44358 19.4566 6.41879C19.3406 6.39403 19.2525 6.32785 19.1925 6.22029C19.1553 6.15373 19.1416 6.06812 19.1513 5.96345C19.1619 5.88482 19.1573 5.82757 19.1371 5.79171C19.1114 5.74563 19.0723 5.73651 19.0197 5.76438C18.9461 5.80339 18.9045 5.87523 18.8948 5.9799C18.8851 6.0846 18.9275 6.22144 19.0219 6.39042L19.3177 6.92049C19.3864 7.0434 19.425 7.14905 19.4335 7.23745C19.4473 7.32308 19.4265 7.41378 19.3709 7.50958L19.3923 7.54796C19.6856 7.43891 19.9472 7.41965 20.1772 7.49014C20.4125 7.55784 20.616 7.74532 20.7875 8.0526L21.0662 8.55191C21.1434 8.69017 21.2399 8.72863 21.3555 8.66734C21.4553 8.6144 21.4862 8.50507 21.4482 8.33937C21.4102 8.1737 21.334 7.98845 21.2197 7.78363L21.4245 7.67495C21.6132 8.01293 21.7065 8.30198 21.7043 8.54208C21.7019 8.78217 21.5642 8.97464 21.2912 9.11952C21.0337 9.25606 20.7931 9.30071 20.5692 9.25349C20.3454 9.20625 20.162 9.05466 20.019 8.79862L19.6803 8.19176C19.5974 8.04326 19.4989 7.94612 19.3848 7.9004C19.2708 7.8547 19.1612 7.85966 19.0561 7.9153L18.796 8.05325L19.6022 9.49734C19.628 9.54345 19.6544 9.57255 19.6816 9.58466C19.7112 9.58892 19.7497 9.57851 19.797 9.55343L20.0492 9.41973L20.1521 9.60406L18.4339 10.5152L18.331 10.3309L18.6305 10.172C18.6778 10.147 18.705 10.1226 18.7122 10.0988C18.7216 10.0672 18.7137 10.0283 18.6882 9.98223L17.8819 8.53814L17.6219 8.67604C17.5168 8.73177 17.4529 8.81872 17.4304 8.93687C17.4078 9.05503 17.438 9.18838 17.5209 9.33691L17.8597 9.94372C18.0026 10.1998 18.0337 10.4322 17.9528 10.641C17.8719 10.8499 17.7026 11.0225 17.4452 11.1591C17.1719 11.304 16.9313 11.3122 16.7233 11.1836C16.5153 11.055 16.3169 10.8216 16.1283 10.4837H16.1282Z" fill="#C1E1FF"/>
<path id="path1274" d="M22.1039 6.53952C21.9398 5.93656 21.9739 5.39096 22.2061 4.90268C22.4383 4.4144 22.7973 4.10743 23.283 3.98185C23.6357 3.89068 23.9693 3.93415 24.2839 4.11218C24.6042 4.28873 24.863 4.56863 25.0602 4.95193C25.1497 5.12179 25.2466 5.39832 25.3509 5.7815L23.2347 6.32863C23.2838 6.50894 23.3214 6.64698 23.3475 6.74278C23.3794 6.83707 23.4179 6.94473 23.4632 7.06572C23.5143 7.1852 23.5689 7.29471 23.627 7.3943C23.7357 7.58935 23.8821 7.72945 24.0662 7.81456C24.2503 7.89967 24.4377 7.91754 24.6285 7.86822C24.773 7.83085 24.8961 7.75986 24.9975 7.65521C25.1048 7.54907 25.1799 7.42711 25.2228 7.28935C25.2716 7.15007 25.3028 7.00327 25.3165 6.84894C25.3301 6.69462 25.3228 6.54273 25.2947 6.39321L25.5202 6.33491C25.5454 6.47314 25.5583 6.61153 25.5589 6.7501C25.5589 6.8887 25.5393 7.03248 25.5 7.1815C25.4601 7.33055 25.4048 7.46852 25.3341 7.59535C25.2635 7.72221 25.1585 7.8368 25.0192 7.93913C24.88 8.04148 24.715 8.11733 24.5241 8.16665C23.9806 8.30716 23.4802 8.21936 23.0229 7.90331C22.5713 7.58579 22.2651 7.13121 22.104 6.53952H22.1039ZM23.1703 6.09192L24.2804 5.80493C24.1179 5.2076 23.9577 4.77851 23.8001 4.51767C23.6482 4.25537 23.4654 4.15186 23.2514 4.20716C23.0375 4.26247 22.9284 4.44147 22.9242 4.74415C22.9266 5.04532 23.0086 5.49459 23.1703 6.09192Z" fill="#C1E1FF"/>
<path id="path1276" d="M26.6338 5.49104C26.6067 5.08965 26.6598 4.72108 26.7929 4.38535C26.9261 4.04962 27.1323 3.77346 27.4114 3.55691C27.6905 3.34035 28.0122 3.22039 28.3763 3.19702C28.5912 3.1833 28.7875 3.20573 28.9653 3.26437C29.1431 3.32306 29.2837 3.40752 29.3871 3.51775C29.4964 3.62758 29.5827 3.7506 29.6458 3.88678C29.7086 4.01711 29.7446 4.15212 29.7541 4.29175C29.7681 4.50117 29.7149 4.68862 29.5943 4.85413C29.4732 5.0138 29.3201 5.09957 29.1351 5.11145C28.9978 5.1202 28.8817 5.08967 28.7871 5.01984C28.6921 4.94415 28.6401 4.8394 28.631 4.70561C28.6201 4.54272 28.7052 4.38241 28.8863 4.2247C29.0217 4.09917 29.0853 3.9753 29.077 3.85312C29.0688 3.73097 29.0166 3.62333 28.9203 3.53018C28.8237 3.43121 28.671 3.38843 28.4621 3.40185C27.9189 3.43669 27.6915 4.10857 27.7799 5.4175C27.794 5.62691 27.8046 5.78398 27.8119 5.8887C27.8245 5.98722 27.8415 6.1059 27.8629 6.24473C27.8903 6.3832 27.9226 6.50674 27.9599 6.61536C28.0281 6.82716 28.1442 6.99206 28.308 7.11008C28.4719 7.22811 28.6524 7.28082 28.8493 7.26817C28.9985 7.25847 29.1332 7.21186 29.2535 7.12831C29.3797 7.04427 29.4775 6.93867 29.5469 6.81152C29.6222 6.684 29.6817 6.54581 29.7256 6.39693C29.7695 6.24805 29.7924 6.09755 29.7941 5.94552L30.0268 5.93062C30.0244 6.07101 30.0098 6.20926 29.9829 6.34535C29.9562 6.48145 29.9085 6.6189 29.8399 6.75768C29.7714 6.89647 29.6899 7.02146 29.5955 7.13269C29.5011 7.24391 29.3755 7.33669 29.2186 7.41102C29.0618 7.48536 28.8849 7.52884 28.6879 7.54147C28.1268 7.57748 27.653 7.39757 27.2666 7.00171C26.8861 6.60545 26.6753 6.10188 26.634 5.49104H26.6338Z" fill="#C1E1FF"/>
<path id="path1278" d="M31.1621 4.94594L31.4216 3.23218L34.9865 3.63759L34.834 5.36356L34.5845 5.33515C34.5752 5.11104 34.5243 4.83231 34.4317 4.49895C34.3773 4.29907 34.2961 4.12257 34.1879 3.96941C34.0857 3.81693 33.9692 3.73324 33.8385 3.71836C33.7791 3.7115 33.7394 3.71577 33.7195 3.73114C33.6996 3.74652 33.6862 3.78314 33.6793 3.84103L33.2695 7.26331C33.2632 7.31542 33.2676 7.35406 33.2827 7.37926C33.3043 7.39936 33.3418 7.41244 33.3954 7.4185L33.8945 7.47528L33.8694 7.68374L31.5521 7.42023L31.5773 7.21172L32.0764 7.2685C32.1298 7.27465 32.1665 7.27002 32.1864 7.25464C32.2129 7.2343 32.2294 7.19801 32.2356 7.14576L32.6454 3.72348C32.6524 3.66557 32.648 3.62692 32.6322 3.60753C32.6165 3.58813 32.5789 3.57503 32.5195 3.56829C32.3888 3.55338 32.2527 3.60833 32.1113 3.73313C31.9758 3.8586 31.858 4.0125 31.7579 4.19481C31.6811 4.33283 31.614 4.46605 31.5565 4.5945C31.499 4.72297 31.4604 4.8184 31.4409 4.88075L31.4118 4.97422L31.1621 4.94594Z" fill="#C1E1FF"/>
<path id="path1280" d="M37.6681 4.92309C37.4783 5.18757 37.2724 5.6494 37.0504 6.30858C36.8285 6.96777 36.7136 7.45868 36.7057 7.78135C36.6977 8.10402 36.8187 8.30537 37.0689 8.38535C37.319 8.46535 37.539 8.37309 37.7288 8.10858C37.9185 7.84407 38.1244 7.38223 38.3463 6.72305C38.5683 6.06386 38.6832 5.57295 38.6911 5.25028C38.6991 4.92761 38.578 4.72626 38.3278 4.64628C38.0778 4.5663 37.8579 4.65859 37.6681 4.92309ZM35.8244 6.83683C35.8154 6.54557 35.8603 6.25315 35.9592 5.95957C36.0581 5.66599 36.1987 5.40727 36.3811 5.18336C36.5654 4.95391 36.7669 4.77598 36.9858 4.64962C37.2065 4.51772 37.4396 4.4328 37.6854 4.39481C37.9311 4.35682 38.1677 4.37415 38.395 4.44687C38.6224 4.51958 38.8235 4.64219 38.9984 4.81468C39.1732 4.98719 39.3095 5.1903 39.4071 5.42401C39.5065 5.65215 39.5607 5.91186 39.5697 6.20312C39.5806 6.48882 39.5366 6.77848 39.4376 7.07206C39.3388 7.36566 39.1972 7.62718 39.0129 7.85663C38.8305 8.08052 38.6289 8.25841 38.4082 8.39033C38.1894 8.51667 37.9572 8.59886 37.7114 8.63687C37.4657 8.67486 37.2291 8.65748 37.0018 8.58476C36.7744 8.51205 36.5733 8.38946 36.3985 8.21695C36.2236 8.04444 36.0865 7.84409 35.987 7.61594C35.8894 7.38226 35.8352 7.12255 35.8244 6.83683Z" fill="#C1E1FF"/>
<path id="path1282" d="M41.0092 9.78881C40.9825 9.83437 40.971 9.87158 40.9746 9.90051C40.9865 9.92726 41.0158 9.95369 41.0626 9.97973L41.3586 10.1446C41.5248 10.2372 41.6955 10.2282 41.8706 10.1176C42.0457 10.007 42.2015 9.83526 42.338 9.60243C42.4746 9.36962 42.5429 9.15922 42.5429 8.97119C42.5429 8.78318 42.4599 8.64286 42.2937 8.55028L41.873 8.31595L41.0092 9.78881ZM41.9978 8.10333L42.3639 8.30729C42.6443 8.46351 42.9256 8.30119 43.2076 7.82037C43.3411 7.5926 43.4045 7.39627 43.3979 7.2314C43.3954 7.06941 43.3298 6.95227 43.201 6.87996L42.9595 6.74539C42.9128 6.71934 42.873 6.71071 42.8404 6.71948C42.8159 6.72611 42.7903 6.75214 42.7636 6.79758L41.9978 8.10333ZM39.5068 9.35473L39.6137 9.17255L39.9097 9.33744C39.9564 9.36346 39.9921 9.37317 40.0166 9.36655C40.0492 9.3578 40.0789 9.33067 40.1056 9.28521L41.8599 6.29389C41.8866 6.24833 41.8941 6.21219 41.8821 6.18544C41.8785 6.15651 41.8533 6.12901 41.8065 6.10297L41.5104 5.93803L41.6173 5.75586L43.4947 6.80169C43.8427 6.99552 44.0734 7.22479 44.1869 7.48946C44.3056 7.75704 44.2848 8.02749 44.1245 8.30079C43.9909 8.52856 43.7931 8.66014 43.5312 8.69555C43.2774 8.72878 43.0026 8.68643 42.7065 8.56851L42.6887 8.59905C43.0322 8.82398 43.2615 9.07925 43.3764 9.3649C43.4914 9.65056 43.4642 9.93765 43.295 10.2261C43.1377 10.4944 42.8981 10.6563 42.576 10.712C42.254 10.7676 41.9346 10.7072 41.6178 10.5308L39.5068 9.35473Z" fill="#C1E1FF"/>
<path id="path1284" d="M46.8155 9.7719C46.5348 9.94309 46.1601 10.2898 45.6915 10.8121C45.2229 11.3343 44.9203 11.7424 44.7836 12.0364C44.647 12.3304 44.6777 12.5619 44.8759 12.7307C45.074 12.8996 45.3134 12.8984 45.5942 12.7272C45.8749 12.556 46.2496 12.2093 46.7182 11.687C47.1868 11.1648 47.4895 10.7566 47.6261 10.4626C47.7628 10.1686 47.732 9.9372 47.5338 9.76835C47.3357 9.59948 47.0963 9.60066 46.8155 9.7719ZM44.3511 10.8314C44.4597 10.5599 44.6182 10.3078 44.8269 10.0752C45.0356 9.84258 45.2688 9.65796 45.5265 9.52134C45.7882 9.38031 46.0451 9.29331 46.2971 9.26033C46.5532 9.22296 46.8019 9.23363 47.0433 9.2923C47.2847 9.35089 47.4955 9.45691 47.6756 9.61043C47.8557 9.76395 47.9917 9.9534 48.0835 10.1788C48.1753 10.4042 48.2193 10.643 48.2154 10.8953C48.2155 11.1432 48.1613 11.4029 48.0527 11.6744C47.9482 11.9415 47.7915 12.1914 47.5828 12.424C47.3741 12.6566 47.1389 12.8434 46.8773 12.9844C46.6196 13.121 46.3628 13.208 46.1067 13.2454C45.8547 13.2784 45.6079 13.2656 45.3664 13.207C45.125 13.1483 44.9142 13.0423 44.7341 12.8888C44.554 12.7353 44.418 12.5458 44.3262 12.3204C44.2344 12.095 44.1885 11.8584 44.1885 11.6105C44.1924 11.3583 44.2466 11.0986 44.3511 10.8315V10.8314Z" fill="#C1E1FF"/>
<path id="path1286" d="M46.7148 14.5631L46.884 14.4333L47.095 14.6943C47.1283 14.7355 47.1576 14.7576 47.1828 14.7605C47.2164 14.7643 47.2544 14.75 47.2967 14.7176L50.0735 12.5852C50.1159 12.5527 50.1366 12.5219 50.1359 12.4928C50.1436 12.4646 50.1309 12.4299 50.0975 12.3887L49.8864 12.1277L50.0556 11.9978L52.0547 14.4707L50.6925 15.5835L50.5371 15.3911C50.682 15.2501 50.8393 15.0255 51.0089 14.7171C51.1121 14.5339 51.1766 14.3359 51.2025 14.123C51.2321 13.9147 51.1915 13.7419 51.0804 13.6045L50.9194 13.4053C50.886 13.3641 50.8525 13.3416 50.8189 13.3377C50.7937 13.3348 50.76 13.3496 50.7177 13.382L47.9408 15.5144C47.8985 15.5469 47.8736 15.5772 47.8659 15.6054C47.8659 15.6345 47.8829 15.6697 47.9169 15.7109L48.1279 15.9719L47.9588 16.1018L46.7148 14.5631Z" fill="#C1E1FF"/>
<path id="path1288" d="M52.9635 17.0735C52.638 17.1332 52.1594 17.323 51.5278 17.6429C50.8962 17.9629 50.4618 18.2355 50.2246 18.4607C49.9874 18.686 49.9295 18.9124 50.0509 19.14C50.1722 19.3676 50.3957 19.4516 50.7211 19.3919C51.0466 19.3322 51.5251 19.1423 52.1568 18.8224C52.7884 18.5025 53.2228 18.2299 53.46 18.0046C53.6971 17.7794 53.7551 17.5529 53.6337 17.3253C53.5123 17.0977 53.2889 17.0137 52.9635 17.0735ZM50.2723 17.1849C50.4749 16.9706 50.7168 16.7922 50.9982 16.6497C51.2795 16.5072 51.5657 16.4181 51.8568 16.3824C52.1531 16.344 52.4248 16.3541 52.6719 16.4129C52.9243 16.469 53.152 16.5673 53.3549 16.7076C53.5578 16.8479 53.7145 17.0215 53.8248 17.2285C53.9352 17.4354 53.9909 17.6601 53.9921 17.9026C53.9945 18.1451 53.9462 18.3831 53.847 18.6167C53.7544 18.8475 53.6069 19.0701 53.4043 19.2844C53.207 19.496 52.9677 19.6731 52.6864 19.8156C52.4051 19.9581 52.1163 20.0485 51.8199 20.0869C51.5288 20.1226 51.257 20.1125 51.0047 20.0564C50.7575 19.9976 50.5326 19.898 50.3297 19.7577C50.1267 19.6174 49.9701 19.4437 49.8598 19.2368C49.7494 19.0299 49.6937 18.8052 49.6925 18.5627C49.69 18.3202 49.7357 18.0835 49.8295 17.8527C49.9274 17.6191 50.0751 17.3965 50.2723 17.1849Z" fill="#C1E1FF"/>
<path id="path1290" d="M52.9114 23.4866L52.9484 23.7111C52.3814 23.7997 52.114 23.9418 52.1462 24.1376C52.167 24.2642 52.2572 24.315 52.4166 24.2901L52.957 24.2057C53.2937 24.1531 53.553 24.2011 53.735 24.3498C53.9229 24.4976 54.0689 24.7228 54.1732 25.0253L54.2176 25.0186C54.2224 24.2384 54.4995 23.8054 55.0489 23.7196C55.3797 23.6679 55.6648 23.7621 55.9042 24.0023C56.1495 24.2414 56.3095 24.5884 56.3844 25.0432L56.7125 27.0378L56.4998 27.0711L56.4544 26.7948C56.4459 26.743 56.428 26.7074 56.4005 26.6881C56.3799 26.6737 56.343 26.6706 56.29 26.6789L52.7992 27.2243C52.746 27.2325 52.709 27.2472 52.6883 27.2681C52.6744 27.2939 52.6718 27.3327 52.6803 27.3846L52.7342 27.7127L52.5216 27.746L52.2035 25.8119L52.4161 25.7785L52.47 26.1067C52.4785 26.1585 52.4931 26.1916 52.5137 26.2061C52.5411 26.2255 52.5814 26.2311 52.6346 26.2228L54.3001 25.9626L54.2448 25.6258C54.1813 25.2401 53.9429 25.0796 53.5294 25.1442L52.8561 25.2494C52.5608 25.2955 52.3256 25.2467 52.1504 25.1028C51.9753 24.9589 51.8646 24.746 51.8182 24.4639C51.7699 24.1703 51.8425 23.9493 52.0362 23.801C52.2299 23.6526 52.5217 23.548 52.9115 23.4871L52.9114 23.4866ZM56.1917 25.1971C56.1282 24.8114 55.8041 24.6642 55.2194 24.7556C54.6346 24.847 54.374 25.0855 54.4375 25.4712L54.5127 25.9288L56.1252 25.6769C56.1783 25.6686 56.2119 25.6515 56.2258 25.6257C56.2457 25.599 56.2514 25.5597 56.2429 25.5079L56.1917 25.1971Z" fill="#C1E1FF"/>
<path id="path1292" d="M52.9568 28.6637C53.0964 28.5913 53.2558 28.5574 53.4352 28.5619C53.6146 28.5664 53.7657 28.6256 53.8883 28.7394C54.0109 28.8591 54.0701 28.9977 54.0659 29.155C54.0623 29.2949 54.0174 29.4075 53.9314 29.4928C53.8453 29.5782 53.7455 29.6194 53.6319 29.6165C53.4585 29.6123 53.326 29.5302 53.2344 29.3704C53.1539 29.246 53.0718 29.1827 52.9881 29.1806C52.8446 29.1771 52.7383 29.2385 52.6691 29.3651C52.6 29.4916 52.5628 29.654 52.5576 29.8522C52.5525 30.0503 52.6412 30.2042 52.8237 30.3137C53.0123 30.4234 53.28 30.4825 53.6268 30.4912C54.2308 30.5063 54.5377 30.3303 54.5473 29.963L54.568 29.1675L54.8192 29.1739L54.7985 29.9607C54.7961 30.0307 54.8064 30.095 54.8294 30.1539C54.8518 30.2128 54.8895 30.2575 54.9426 30.288C54.9955 30.3243 55.0486 30.3518 55.1019 30.3707C55.1551 30.3953 55.2206 30.4115 55.2982 30.4193C55.3756 30.433 55.4412 30.4405 55.4951 30.4417C55.5487 30.4487 55.6174 30.4533 55.7011 30.4555C56.2872 30.4701 56.5845 30.3114 56.5932 29.9792C56.5976 29.8101 56.524 29.6508 56.3724 29.5012C56.2268 29.3518 56.0445 29.2306 55.8255 29.1377C55.6066 29.0447 55.3721 28.9718 55.1222 28.9189L55.1276 28.7091L56.7871 28.7505L56.7817 28.9604L56.5645 29.0249C56.4981 29.0467 56.4643 29.0808 56.4631 29.1274C56.4631 29.1623 56.4915 29.2184 56.5484 29.2957C56.7272 29.5509 56.8126 29.8301 56.8047 30.1331C56.7933 30.5644 56.6828 30.897 56.4733 31.1308C56.2637 31.3647 56.0034 31.4778 55.6925 31.47C55.4653 31.4644 55.2612 31.3718 55.0804 31.1924C54.8997 31.0129 54.7829 30.7883 54.7301 30.5188H54.6763C54.5012 31.2609 54.1087 31.6243 53.4988 31.6091C53.134 31.6001 52.8451 31.4354 52.6321 31.1151C52.4251 30.795 52.3288 30.361 52.3432 29.8132C52.3473 29.6558 52.3723 29.5019 52.4181 29.3514C52.4638 29.2068 52.5301 29.0743 52.617 28.954C52.704 28.8337 52.8172 28.7374 52.9568 28.665L52.9568 28.6637Z" fill="#C1E1FF"/>
<path id="path1294" d="M51.5618 35.5302L51.7702 35.5833L51.6976 35.854C51.684 35.9048 51.684 35.9408 51.6976 35.9621C51.7146 35.9906 51.7492 36.0115 51.8014 36.0247L55.2217 36.8963C55.2738 36.9096 55.3115 36.9071 55.3349 36.8889C55.3626 36.8778 55.3832 36.8469 55.3969 36.7962L55.4696 36.5255L55.6778 36.5785L55.183 38.423L54.9747 38.3699L55.061 38.0484C55.0746 37.9976 55.0728 37.958 55.0558 37.9295C55.043 37.9082 55.0105 37.8909 54.9585 37.8776L51.5382 37.006C51.4861 36.9928 51.4463 36.9916 51.4186 37.0025C51.3953 37.0207 51.3767 37.0552 51.3629 37.1059L51.2767 37.4273L51.0684 37.3743L51.5618 35.5302ZM52.438 32.2644L52.6464 32.3175L52.5601 32.639C52.5465 32.6897 52.5465 32.7258 52.5601 32.7472C52.5771 32.7756 52.6116 32.7965 52.6638 32.8098L56.0841 33.6813C56.1362 33.6945 56.174 33.6921 56.1974 33.6738C56.2251 33.6627 56.2458 33.6319 56.2594 33.5812L56.3456 33.2597L56.5539 33.3128L56.0501 35.1911L55.8417 35.138L55.9189 34.8503C55.9339 34.7939 55.93 34.7507 55.9072 34.7208C55.8844 34.6909 55.8354 34.6663 55.76 34.6471L54.2929 34.2733L54.0978 35.0009C54.0039 35.3506 53.8189 35.6138 53.5428 35.7905C53.2666 35.9671 52.9722 36.0157 52.6597 35.936C52.3472 35.8564 52.112 35.6729 51.9542 35.3857C51.7963 35.0984 51.7643 34.7798 51.8581 34.4301L52.438 32.2644ZM52.3994 33.7912C52.3473 33.7779 52.3074 33.7768 52.2797 33.7876C52.2562 33.8058 52.2377 33.8403 52.2242 33.8909L52.1606 34.1279C52.1122 34.3083 52.1627 34.4659 52.3121 34.6004C52.4615 34.7348 52.6693 34.836 52.9355 34.9038C53.2017 34.9716 53.4309 34.9818 53.6229 34.9343C53.815 34.8869 53.9352 34.7728 53.9836 34.5923L54.0835 34.2201L52.3994 33.7912Z" fill="#C1E1FF"/>
<path id="path1296" d="M50.7525 38.0254L50.9415 38.126L50.778 38.4176C50.7522 38.4637 50.7429 38.4986 50.75 38.5223C50.7595 38.554 50.7878 38.5824 50.8352 38.6075L53.9379 40.2589C53.9851 40.2841 54.0225 40.2906 54.0497 40.2784C54.0793 40.2742 54.1069 40.2491 54.1327 40.2031L54.2962 39.9114L54.4852 40.0121L53.5476 41.6852L53.3586 41.5846L53.4962 41.339C53.522 41.2929 53.5302 41.2541 53.5207 41.2225C53.5134 41.1987 53.4861 41.1743 53.439 41.1491L52.0372 40.4031L51.7663 40.8866C51.7061 40.994 51.7037 41.0957 51.759 41.1916C51.8143 41.2874 51.9103 41.3717 52.0468 41.4444L52.5823 41.7294C52.8448 41.8691 53.0097 42.0432 53.0769 42.2517C53.1412 42.4653 53.1203 42.6667 53.0142 42.8561C52.911 43.0403 52.7741 43.1567 52.6037 43.2055C52.4332 43.2543 52.2562 43.2298 52.0724 43.132C51.9307 43.0565 51.8386 42.9411 51.7962 42.7856C51.7537 42.6302 51.764 42.4962 51.8271 42.3837C51.8902 42.2711 51.9773 42.1946 52.0886 42.1541C52.1998 42.1137 52.3106 42.1229 52.4208 42.1815C52.4891 42.2178 52.5483 42.2825 52.5984 42.3756C52.6332 42.4473 52.6689 42.4929 52.7057 42.5125C52.7529 42.5376 52.7909 42.5246 52.8196 42.4734C52.8597 42.4018 52.8547 42.3194 52.8046 42.2263C52.7545 42.1333 52.6429 42.0406 52.4696 41.9484L51.9263 41.6592C51.8003 41.5921 51.7092 41.5237 51.6529 41.4539C51.5966 41.3841 51.5636 41.2968 51.5541 41.1921L51.5148 41.1712C51.3289 41.4177 51.1198 41.572 50.8872 41.6343C50.6519 41.7016 50.3766 41.6515 50.0616 41.4838L49.5497 41.2114C49.408 41.1359 49.3056 41.1545 49.2426 41.2671C49.1451 41.441 49.3483 41.6621 49.8523 41.9304L49.7405 42.1299C49.394 41.9455 49.1549 41.7518 49.0233 41.5489C48.8916 41.346 48.8988 41.114 49.0451 40.8531C49.1856 40.6024 49.363 40.4377 49.5774 40.3592C49.7918 40.2807 50.0303 40.3113 50.2928 40.451L50.9149 40.7822C51.0671 40.8632 51.2039 40.8928 51.3252 40.871C51.4464 40.8492 51.5357 40.7871 51.5931 40.6848L51.8168 40.2856L50.3363 39.4977C50.289 39.4725 50.2506 39.462 50.221 39.4661C50.1938 39.4782 50.1672 39.5072 50.1414 39.5533L50.0038 39.7989L49.8148 39.6983L50.7525 38.0254Z" fill="#C1E1FF"/>
<path id="path1298" d="M48.4389 43.5171C48.2164 43.3311 48.027 43.2418 47.8706 43.2493C47.7143 43.2569 47.5914 43.3115 47.5018 43.4132C47.3499 43.5858 47.3309 43.8043 47.445 44.0686L48.7932 45.1962L48.9843 44.7106C49.1291 44.3401 48.9473 43.9423 48.4389 43.5171ZM49.0905 42.6562C49.2176 42.7625 49.3142 42.8855 49.3803 43.0253C49.4464 43.1651 49.4869 43.3026 49.5017 43.438C49.5165 43.5733 49.509 43.7206 49.4792 43.8799C49.4538 44.0431 49.4202 44.1841 49.3786 44.303C49.3416 44.4256 49.2928 44.5615 49.2324 44.7108L48.9771 45.3499L49.4402 45.7371C49.6717 45.9308 49.8806 46.0248 50.0668 46.0192C50.2531 46.0135 50.4104 45.9377 50.5389 45.7918C50.6441 45.6723 50.7081 45.5415 50.7309 45.3992C50.7582 45.2607 50.722 45.1497 50.6221 45.0662C50.5404 44.9979 50.4434 44.9782 50.3311 45.0072C50.2357 45.035 50.1517 45.0454 50.079 45.0385C50.0109 45.0351 49.9383 45.0013 49.8611 44.9368C49.7476 44.8419 49.6944 44.7322 49.7016 44.6076C49.7089 44.483 49.7554 44.3721 49.841 44.2748C49.9423 44.1597 50.0685 44.0924 50.2197 44.0729C50.3715 44.0616 50.5223 44.1186 50.6721 44.2439C50.8447 44.3882 50.9523 44.5703 50.995 44.7904C51.0383 45.0187 51.0236 45.2368 50.9508 45.4449C50.8826 45.6567 50.7783 45.8422 50.6381 46.0015C50.5368 46.1165 50.4281 46.2176 50.3119 46.3048C50.1957 46.3921 50.0636 46.466 49.9157 46.5266C49.7677 46.5872 49.6178 46.6232 49.466 46.6345C49.3142 46.6458 49.1532 46.6227 48.9833 46.565C48.8133 46.5074 48.6489 46.4122 48.4901 46.2793L46.7672 44.8385C46.6037 44.7019 46.483 44.6777 46.4051 44.7662C46.335 44.8459 46.3506 44.9626 46.4517 45.1163C46.5529 45.27 46.692 45.4209 46.869 45.5689L46.7054 45.7548C46.374 45.4776 46.1739 45.2259 46.1052 44.9994C46.0664 44.8824 46.0629 44.7566 46.0948 44.6219C46.1227 44.4917 46.1854 44.3713 46.2827 44.2606C46.4425 44.0792 46.5927 43.9667 46.7336 43.9232C46.8744 43.8796 47.0356 43.8796 47.2173 43.9232L47.2289 43.91C47.1396 43.528 47.2352 43.1778 47.5156 42.8592C47.5935 42.7707 47.6743 42.6924 47.758 42.6241C47.8418 42.5559 47.9369 42.4971 48.0433 42.4478C48.1504 42.4068 48.2587 42.3822 48.3684 42.374C48.4741 42.3702 48.5903 42.3905 48.7168 42.4349C48.8433 42.4792 48.9678 42.5526 49.0904 42.6551L49.0905 42.6562Z" fill="#C1E1FF"/>
</g>
</g>
<path id="path1340" fill-rule="evenodd" clip-rule="evenodd" d="M27.9125 39.8242C27.6932 39.3087 27.3207 38.6082 27.0634 38.2274C26.1384 36.8586 24.626 35.6901 23.0799 35.1497L22.7998 35.0518L23.1576 34.5329C23.3686 34.2269 23.5482 33.9126 23.5952 33.7669C23.7152 33.395 24.1622 32.8945 24.5303 32.7199C24.6604 32.6582 24.679 32.66 24.8264 32.7488C24.9171 32.8034 25.0352 32.8377 25.1055 32.8298C25.2106 32.818 25.2293 32.7948 25.2407 32.662C25.2514 32.5377 25.2238 32.4726 25.0977 32.3256C24.9553 32.1595 24.9415 32.1196 24.9415 31.8749C24.9415 31.7272 24.9614 31.367 24.9858 31.0744C25.0102 30.7818 25.0494 29.4427 25.073 28.0986C25.1172 25.5786 25.1371 25.2828 25.3142 24.5184C25.4368 23.9891 25.5394 23.2323 25.6019 22.3957C25.6556 21.6757 25.7161 21.2129 25.8092 20.809C25.8559 20.6061 25.8803 20.2657 25.8842 19.7584C25.8897 19.0647 25.8979 18.9925 25.9932 18.8031C26.0499 18.6904 26.1753 18.5323 26.2719 18.4517C26.5252 18.2404 26.7494 18.2052 27.3172 18.2878C27.7197 18.3463 27.8747 18.3478 28.5164 18.3001C29.9072 18.1965 30.6335 18.3573 30.9867 18.8472C31.099 19.0029 31.1206 19.0801 31.1453 19.4133C31.1664 19.6988 31.1948 19.8217 31.2545 19.886C31.3664 20.0065 31.4242 19.9956 31.5916 19.8227C31.6715 19.7402 31.772 19.6726 31.815 19.6726C31.9315 19.6726 32.2277 19.9528 32.3309 20.1606C32.4582 20.4168 32.4473 20.5546 32.2874 20.7104C32.1663 20.8284 32.1328 20.8391 31.9384 20.8209C31.4315 20.7734 30.8704 20.3329 30.5289 19.7145C30.1967 19.1127 30.1279 19.0635 29.9201 19.2791C29.7861 19.4182 29.185 19.5871 28.8261 19.5866C28.54 19.5862 27.9379 19.4407 27.6656 19.3062C27.5427 19.2455 27.3894 19.2019 27.3249 19.2091C27.1472 19.2292 27.1419 19.4193 27.3125 19.6509C27.4991 19.9041 27.5481 20.1613 27.5114 20.6948L27.4807 21.1411L27.2616 21.1158C26.8257 21.0655 26.7721 21.235 27.0563 21.7641C27.2842 22.1885 27.3214 22.4133 27.1856 22.5456C27.1085 22.6207 27.055 22.636 26.9354 22.6171C26.7543 22.5885 26.5923 22.6404 26.5533 22.7395C26.5377 22.7789 26.5631 22.895 26.6096 22.9975C26.7244 23.2504 26.8853 23.2931 27.7135 23.2907C28.4027 23.2887 29.0047 23.2346 29.8695 23.0968C30.9509 22.9245 31.6591 22.9858 32.0048 23.2817C32.2002 23.4489 32.248 23.6102 32.2384 24.0702C32.2309 24.4295 32.2404 24.4746 32.3872 24.7757C32.5555 25.1206 32.7018 25.6755 32.6771 25.8753L32.662 25.9978L32.5698 25.8263C32.5191 25.7319 32.4342 25.526 32.3811 25.3686C32.2609 25.0123 32.0183 24.7334 31.7014 24.5873C31.5644 24.5241 31.2165 24.436 30.856 24.3731C30.08 24.2377 29.9798 24.2271 28.9675 24.1742C28.0249 24.1249 27.3623 24.0349 27.0179 23.9093C26.7333 23.8056 26.5824 23.8316 26.5412 23.9913C26.5162 24.0883 26.5377 24.1282 26.6791 24.2473C26.8904 24.4253 27.4076 24.6213 27.8905 24.7063C28.0957 24.7424 28.6694 24.7933 29.1655 24.8195C30.0379 24.8656 30.2377 24.8843 30.9915 24.9902C31.1851 25.0174 31.4058 25.0483 31.482 25.0589C31.5896 25.0738 31.616 25.0954 31.5998 25.1556C31.5884 25.1982 31.6487 25.3569 31.7338 25.5082C31.9908 25.9654 32.2018 26.8646 32.2008 27.4987C32.2001 27.9729 32.1833 28.0135 31.9537 28.0989C31.8459 28.139 31.7267 28.2182 31.6886 28.2748C31.6254 28.3688 31.6257 28.3872 31.6917 28.4854C31.7315 28.5446 31.8733 28.6637 32.0069 28.7501C32.2462 28.905 32.2509 28.9061 32.3327 28.8248C32.5416 28.617 32.9767 27.589 32.931 27.4113C32.9152 27.3499 32.9446 27.2659 33.0149 27.1719C33.1811 26.9495 33.2209 26.8388 33.2571 26.4985C33.2754 26.3257 33.3115 26.1638 33.3373 26.1387C33.3632 26.1135 33.4849 26.0835 33.6078 26.072C33.7307 26.0605 33.8439 26.0311 33.8594 26.0068C33.9089 25.9287 33.6972 25.8048 33.5145 25.8048C33.2073 25.8048 33.015 25.4825 32.8833 24.7467C32.767 24.0967 32.8297 23.2663 33.016 22.9891C33.2049 22.7082 33.6521 22.5393 33.7872 22.6979C33.8187 22.7349 33.8593 22.9598 33.8791 23.207C33.9412 23.9826 34.0246 24.21 34.4005 24.6286C34.6069 24.8586 34.6215 24.8899 34.6215 25.1047C34.6215 25.2512 34.6782 25.5059 34.7779 25.8064C35.0712 26.6906 35.1315 27.1645 34.9754 27.3579C34.844 27.5207 34.7112 28.0469 34.6693 28.5708L34.6316 29.0425L34.2056 29.8986C33.7167 30.8813 33.5126 31.1979 33.0029 31.7641C32.2943 32.5512 32.0996 32.8531 32.0911 33.1777C32.0882 33.2855 32.0626 33.4153 32.0342 33.4663C32.0058 33.5172 31.7992 33.6886 31.575 33.8471C31.3509 34.0055 31.0487 34.2468 30.9035 34.3833C30.5986 34.6698 30.4527 34.7218 29.9355 34.7285C29.4854 34.7342 29.3738 34.766 29.3245 34.9025C29.2706 35.052 29.3264 35.2432 29.4319 35.2701C29.634 35.3216 29.5829 35.6581 29.2727 36.3202C29.1653 36.5492 29.0775 36.7633 29.0775 36.7959C29.0775 36.9104 28.9018 37.351 28.7083 37.7216C28.4156 38.282 28.274 38.8649 28.3704 39.1121C28.4029 39.1954 28.403 39.2918 28.3708 39.4328C28.2931 39.7731 28.1467 40.2134 28.1114 40.2134C28.093 40.2134 28.0035 40.0382 27.9125 39.8242L27.9125 39.8242ZM28.7851 34.1844C29.3912 34.0314 29.7815 33.7463 29.7815 33.4565C29.7815 33.2031 29.7477 33.2088 28.7883 33.6259C28.5929 33.7109 28.3256 33.8 28.1943 33.824C27.9802 33.8632 27.8455 33.9491 27.8455 34.0465C27.8455 34.0656 27.8851 34.1198 27.9335 34.1669C28.0445 34.2752 28.397 34.2824 28.7851 34.1844V34.1844ZM29.6045 31.4229C29.6492 31.3996 29.7194 31.2947 29.7605 31.1899C29.8469 30.9694 29.8979 30.9401 30.0977 30.9959C30.418 31.0855 30.4127 31.1781 30.1781 29.5839C30.1531 29.4141 30.0948 29.2471 30.0244 29.1433C29.9619 29.0514 29.8987 28.9139 29.8838 28.8378C29.8468 28.6486 29.7155 28.3981 29.5182 28.1405C29.1407 27.6474 29.0747 27.3513 29.3138 27.2227C29.3893 27.1821 29.4602 27.0946 29.4898 27.0056C29.625 26.5995 30.1963 26.7425 30.4573 27.2476C30.5756 27.4767 30.5889 27.7051 30.5073 28.1058C30.2735 29.2541 30.7011 30.3758 31.3111 30.2142C31.4877 30.1674 31.7201 29.8705 31.8325 29.5482C31.9514 29.2073 31.8761 29.1795 31.5611 29.4482C31.4202 29.5684 31.2561 29.6786 31.1964 29.6932C30.8584 29.7759 30.7479 29.3227 30.9279 28.5922C30.9773 28.3917 31.0294 28.0801 31.0437 27.8996C31.0854 27.376 30.9093 26.0676 30.7873 25.9941C30.7634 25.9797 30.7097 25.9981 30.6679 26.035C30.5447 26.1437 30.1552 26.2037 29.7801 26.1718C29.3185 26.1326 29.0542 26.0587 28.7164 25.8746C28.3643 25.6827 28.1463 25.6672 28.0393 25.8265C27.9303 25.9886 28.0181 26.1413 28.4335 26.5113L28.7894 26.8284L28.6865 27.0563C28.6299 27.1817 28.5637 27.362 28.5393 27.457C28.4411 27.8406 28.7036 28.4357 28.9961 28.4927C29.1591 28.5245 29.2607 28.7166 29.3614 29.1832C29.4954 29.8041 29.4962 30.1149 29.3649 30.6086C29.2235 31.1405 29.2136 31.3309 29.3235 31.4092C29.4176 31.4763 29.495 31.4801 29.6045 31.4229H29.6045Z" fill="#F5D999"/>
<path id="path1342" fill-rule="evenodd" clip-rule="evenodd" d="M26.6899 52.7786C23.9412 52.5158 21.2847 52.0946 20.3439 51.7725C19.7067 51.5544 17.5416 51.0356 16.9962 50.9704C16.7475 50.9407 16.5439 50.8571 16.5439 50.8571C16.5439 50.8571 16.6315 50.3305 16.7385 49.7594C16.8455 49.1882 17.0035 48.2406 17.0896 47.6536C17.3529 45.8589 17.642 45.7659 19.7119 46.1417C22.1657 46.5872 24.884 46.8344 29.2678 47.0468C31.5302 47.1565 37.7773 46.6721 40.6559 46.1417C41.9243 45.9081 42.3331 45.9213 42.612 46.1373C42.9037 46.3631 42.9436 46.495 43.1689 47.981C43.2773 48.6952 43.4332 49.6416 43.5155 50.0841C43.5977 50.5267 43.6568 50.897 43.6468 50.907C43.6367 50.917 43.3478 50.9633 43.0047 51.0101C42.3825 51.0948 40.9347 51.4463 39.6674 51.8203C38.7627 52.0873 37.2921 52.3468 35.2629 52.5975C33.7298 52.7869 33.2854 52.8084 30.5045 52.8282C28.8174 52.8402 27.1009 52.8178 26.6899 52.7786Z" fill="#F5D999"/>
<g id="text1147">
<path id="path1173" d="M22.4765 47.707L22.4617 47.8487C22.6737 47.8863 22.7019 48.0322 22.6834 48.2113L22.4815 50.1697C22.4632 50.3489 22.4057 50.4863 22.1902 50.482L22.1758 50.6237L24.6938 50.8703C24.8307 50.8837 25.0932 50.9347 25.0605 51.2513C25.0486 51.368 24.9445 51.5388 24.7051 51.5153C24.393 51.4848 24.0293 51.2429 23.5249 51.0673C23.3625 51.0093 23.1816 50.9621 23.0363 50.9479C22.613 50.9064 22.3543 51.0705 22.3311 51.2955C22.3159 51.4413 22.3896 51.5243 22.4836 51.5335C22.5691 51.5417 22.6397 51.4856 22.6483 51.4023C22.656 51.3273 22.6077 51.251 22.5137 51.2418C22.5052 51.2418 22.4922 51.2384 22.4834 51.2418C22.5223 51.1152 22.6976 51.1323 22.7575 51.1382C23.1294 51.1746 23.4064 51.3785 23.8296 51.5462C23.8461 51.552 24.1865 51.6863 24.4687 51.714C24.986 51.7646 25.1845 51.4727 25.2064 51.2601C25.2285 51.0435 25.1287 50.9243 25.0356 50.8226C24.9001 50.6704 24.9258 50.5887 24.9353 50.4971L25.1462 48.4512C25.1652 48.2679 25.2302 48.1396 25.4332 48.1385L25.448 47.9968L24.5758 47.9114L24.5611 48.0531C24.7586 48.1061 24.7975 48.2319 24.7786 48.4153L24.544 50.6903L22.8168 50.5211L23.0513 48.2461C23.0615 48.1461 23.0951 47.9474 23.3383 47.9333L23.3528 47.7916L22.4765 47.707Z" fill="black" stroke="black" stroke-width="0.6" stroke-linecap="round"/>
<path id="path1175" d="M27.6596 48.1314L26.7844 48.0852L26.7767 48.2274C26.9817 48.2549 27.0211 48.3955 27.0109 48.5794L26.9018 50.5448C26.8916 50.7288 26.8368 50.8642 26.6299 50.8701L26.6221 51.0123L27.4973 51.0584L27.5051 50.9163C27.3001 50.8888 27.2606 50.7482 27.2708 50.5642L27.3224 49.6359L29.0514 49.7271L28.9999 50.6554C28.9879 50.8687 28.9178 50.9698 28.7279 50.9808L28.7198 51.1229L29.5994 51.1694L29.6071 51.0272C29.4278 51.0008 29.3572 50.8798 29.3685 50.6749L29.4777 48.7096C29.4844 48.5883 29.5167 48.3929 29.7539 48.3845L29.762 48.2423L28.8824 48.1959L28.8747 48.3381C29.0623 48.3689 29.1209 48.4769 29.109 48.6901L29.0605 49.5641L27.3314 49.4729L27.38 48.5989C27.3912 48.394 27.4621 48.2803 27.6519 48.2735L27.6596 48.1314Z" fill="black" stroke="black" stroke-width="0.6"/>
<path id="path1177" d="M30.8594 48.2333L30.8678 48.3754C31.0707 48.385 31.1344 48.5155 31.1454 48.6995L31.2623 50.6644C31.2732 50.8483 31.2255 50.9853 31.0251 51.0176L31.0336 51.1597L31.9129 51.11L31.9045 50.9678C31.7016 50.9582 31.6424 50.8317 31.6312 50.6435L31.6249 50.5348L33.2529 48.8907H33.2659L33.3645 50.5463C33.3751 50.726 33.3321 50.8711 33.1273 50.8995L33.1358 51.0416L34.0151 50.9919L34.0067 50.8497C33.7907 50.8367 33.7447 50.7135 33.7335 50.5254L33.6164 48.5605C33.6055 48.3766 33.6403 48.2404 33.8493 48.2076L33.8409 48.0654L32.9615 48.1152L32.97 48.2573C33.1123 48.2618 33.2344 48.3598 33.2426 48.4977L33.2507 48.6315L31.6224 50.2715H31.6094L31.5146 48.6787C31.5036 48.4947 31.5385 48.3585 31.7475 48.3257L31.739 48.1836L30.8594 48.2333Z" fill="black" stroke="black" stroke-width="0.6"/>
<path id="path1179" d="M35.1582 47.9822L35.1733 48.1238C35.3764 48.1238 35.4461 48.2522 35.4654 48.4355L35.6722 50.3933C35.6916 50.5766 35.65 50.7155 35.4513 50.7565L35.4665 50.8981L36.3427 50.8102L36.3276 50.6686C36.1245 50.6686 36.0595 50.5439 36.0397 50.3565L36.0285 50.2482L37.5797 48.535H37.5924L37.7666 50.1846C37.7856 50.3637 37.7489 50.5105 37.5457 50.5478L37.5609 50.6893L38.4371 50.6015L38.4223 50.4599C38.2059 50.4564 38.1543 50.3352 38.1345 50.1477L37.9277 48.1899C37.9083 48.0066 37.9369 47.869 38.1443 47.8272L38.1291 47.6855L37.2529 47.7734L37.2681 47.915C37.4105 47.915 37.5368 48.006 37.5514 48.1434L37.5655 48.2767L36.0138 49.9858H36.0012L35.8336 48.3987C35.8142 48.2154 35.8427 48.0778 36.0501 48.0359L36.0349 47.8943L35.1582 47.9822Z" fill="black" stroke="black" stroke-width="0.6"/>
</g>
</g>
</g>
</g>
</g>
</svg>
